<svg height="512pt" viewBox="-6 0 512 512.00123" width="512pt" xmlns="http://www.w3.org/2000/svg"><path d="m278.386719 237.984375c-3.457031 0-6.558594-2.40625-7.308594-5.921875-2.175781-10.203125-6.546875-19.59375-12.996094-27.910156-19.417969-25.054688-53.253906-33.738282-82.277343-21.105469-3.789063 1.640625-8.195313-.089844-9.84375-3.878906-1.648438-3.785157.085937-8.191407 3.875-9.839844 35.308593-15.359375 76.457031-4.804687 100.070312 25.660156 7.835938 10.109375 13.152344 21.535157 15.800781 33.957031.863281 4.039063-1.714843 8.011719-5.753906 8.875-.527344.109376-1.050781.164063-1.566406.164063zm0 0" fill="#0882bf"/><path d="m100.894531 371.601562c-.390625 0-.792969-.03125-1.191406-.09375-4.082031-.65625-6.855469-4.492187-6.199219-8.570312 8.441406-52.589844 51.433594-92.664062 104.546875-97.453125 38.5625-3.476563 76.226563 12.382813 100.746094 42.414063 2.609375 3.199218 2.132813 7.914062-1.066406 10.523437-3.199219 2.613281-7.910157 2.136719-10.523438-1.0625-21.375-26.179687-54.203125-40-87.8125-36.972656-46.296875 4.171875-83.765625 39.09375-91.125 84.921875-.589843 3.675781-3.765625 6.292968-7.375 6.292968zm0 0" fill="#1dc2ff"/><path d="m164.621094 449.648438c-3.371094 0-6.433594-2.292969-7.261719-5.714844-10.441406-43 9.609375-87.515625 48.753906-108.261719 28.421875-15.058594 62.367188-15.023437 90.804688.101563 3.648437 1.9375 5.03125 6.46875 3.09375 10.113281-1.941407 3.648437-6.46875 5.03125-10.117188 3.09375-24.046875-12.789063-52.746093-12.820313-76.777343-.089844-33.09375 17.535156-50.046876 55.167969-41.222657 91.511719.976563 4.015625-1.488281 8.058594-5.503906 9.035156-.59375.144531-1.1875.210938-1.769531.210938zm0 0" fill="#ff738b"/><path d="m275.167969 512c-2.023438 0-4.035157-.8125-5.507813-2.417969-16.765625-18.234375-25.820312-41.921875-25.503906-66.695312.410156-32.164063 16.71875-61.9375 43.625-79.640625 3.445312-2.269532 8.085938-1.316406 10.355469 2.136718 2.273437 3.453126 1.316406 8.089844-2.136719 10.359376-22.75 14.96875-36.539062 40.140624-36.886719 67.335937-.265625 20.945313 7.390625 40.96875 21.558594 56.382813 2.796875 3.039062 2.59375 7.773437-.445313 10.566406-1.4375 1.320312-3.25 1.972656-5.058593 1.972656zm0 0" fill="#ee4a84"/><path d="m451.09375 385.066406c-2.597656 0-5.121094-1.355468-6.503906-3.773437-10.375-18.183594-27.121094-31.566407-47.15625-37.679688-26.011719-7.9375-54.183594-2.453125-75.363282 14.667969-3.214843 2.59375-7.925781 2.097656-10.519531-1.113281-2.597656-3.214844-2.097656-7.921875 1.113281-10.519531 25.050782-20.25 58.371094-26.730469 89.136719-17.34375 23.699219 7.234374 43.511719 23.0625 55.785157 44.574218 2.046874 3.589844.796874 8.15625-2.789063 10.207032-1.171875.664062-2.445313.980468-3.703125.980468zm0 0" fill="#ff6914"/><path d="m331.621094 320.484375c-.722656 0-1.453125-.105469-2.179688-.324219-3.953125-1.199218-6.183594-5.378906-4.980468-9.332031 12.796874-42.109375 52.464843-70.109375 96.5-68.082031 31.960937 1.46875 61.019531 18.664062 77.730468 45.996094 2.15625 3.527343 1.042969 8.128906-2.480468 10.28125-3.523438 2.160156-8.128907 1.046874-10.28125-2.476563-14.117188-23.089844-38.664063-37.617187-65.660157-38.859375-37.160156-1.707031-70.691406 21.933594-81.5 57.492188-.976562 3.226562-3.941406 5.304687-7.148437 5.304687zm0 0" fill="#ee4a84"/><path d="m310.15625 297.242188c-3.789062 0-7.039062-2.867188-7.433594-6.71875-2.730468-26.722657-18.46875-50.253907-42.097656-62.945313-32.542969-17.476563-72.683594-10.691406-97.605469 16.496094-2.792969 3.046875-7.523437 3.253906-10.570312.460937-3.042969-2.789062-3.25-7.523437-.457031-10.566406 29.550781-32.242188 77.132812-40.289062 115.710937-19.570312 28.007813 15.046874 46.664063 42.933593 49.902344 74.601562.417969 4.109375-2.570313 7.78125-6.679688 8.203125-.257812.027344-.515625.039063-.769531.039063zm0 0" fill="#faa200"/><path d="m181.003906 152.71875c-.617187 0-1.242187-.078125-1.867187-.238281-4-1.027344-6.410157-5.101563-5.382813-9.105469 7.554688-29.417969 29.121094-53.082031 57.683594-63.292969 39.347656-14.066406 83.097656.289063 106.398438 34.910157 2.304687 3.425781 1.398437 8.074218-2.027344 10.378906-3.429688 2.308594-8.078125 1.402344-10.382813-2.027344-19.476562-28.941406-56.054687-40.9375-88.949219-29.175781-23.882812 8.539062-41.914062 28.324219-48.234374 52.929687-.867188 3.375-3.90625 5.621094-7.238282 5.621094zm0 0" fill="#ff738b"/><path d="m94.339844 307.097656c-2.511719 0-4.964844-1.261718-6.378906-3.558594-8.867188-14.421874-13.136719-31.015624-12.339844-47.988281 1.804687-38.503906 29.40625-70.796875 67.125-78.53125 4.046875-.832031 8 1.777344 8.828125 5.824219s-1.777344 8-5.824219 8.828125c-31.007812 6.359375-53.703125 32.914063-55.1875 64.578125-.652344 13.960938 2.855469 27.601562 10.140625 39.449219 2.164063 3.519531 1.066406 8.125-2.453125 10.289062-1.21875.753907-2.574219 1.109375-3.910156 1.109375zm0 0" fill="#ff6914"/><path d="m7.492188 220.34375c-.339844 0-.679688-.023438-1.023438-.070312-4.09375-.558594-6.957031-4.332032-6.3984375-8.421876 3.2421875-23.734374 15.1484375-45.289062 33.5195315-60.691406 33.769531-28.308594 82.300781-30.121094 118.015625-4.40625 3.355469 2.414063 4.113281 7.089844 1.699219 10.441406-2.414063 3.351563-7.085938 4.113282-10.4375 1.699219-30.160157-21.714843-71.144532-20.183593-99.667969 3.730469-15.515625 13.007812-25.570313 31.207031-28.308594 51.25-.511719 3.75-3.71875 6.46875-7.398437 6.46875zm0 0" fill="#ee4a84"/><path d="m157.144531 128.847656c-2.617187 0-5.160156-1.378906-6.53125-3.824218-13.652343-24.367188-14.328125-53.800782-1.8125-78.730469 17.246094-34.335938 55.464844-52.566407 92.945313-44.328125 4.035156.882812 6.585937 4.875 5.699218 8.910156-.886718 4.035156-4.878906 6.585938-8.910156 5.699219-30.792968-6.769531-62.195312 8.214843-76.363281 36.429687-10.289063 20.488282-9.730469 44.675782 1.492187 64.707032 2.019532 3.601562.734376 8.160156-2.867187 10.179687-1.160156.648437-2.414063.957031-3.652344.957031zm0 0" fill="#1dc2ff"/><path d="m417.628906 183.320312c0 11.625-9.421875 21.046876-21.042968 21.046876-11.625 0-21.046876-9.421876-21.046876-21.046876 0-11.621093 9.421876-21.042968 21.046876-21.042968 11.621093 0 21.042968 9.421875 21.042968 21.042968zm0 0" fill="#ffdf57"/><path d="m107.039062 49.429688c0 11.621093-9.421874 21.042968-21.042968 21.042968-11.625 0-21.046875-9.421875-21.046875-21.042968 0-11.625 9.421875-21.046876 21.046875-21.046876 11.621094 0 21.042968 9.421876 21.042968 21.046876zm0 0" fill="#ffc738"/><path d="m71.507812 359.847656c0 11.625-9.421874 21.046875-21.042968 21.046875-11.625 0-21.046875-9.421875-21.046875-21.046875 0-11.621094 9.421875-21.042968 21.046875-21.042968 11.621094 0 21.042968 9.421874 21.042968 21.042968zm0 0" fill="#ffdf57"/><path d="m485.078125 129.226562c0 15.445313-12.523437 27.96875-27.972656 27.96875-15.445313 0-27.96875-12.523437-27.96875-27.96875 0-15.445312 12.523437-27.96875 27.96875-27.96875 15.449219 0 27.972656 12.523438 27.972656 27.96875zm0 0" fill="#fab700"/><path d="m396.585938 162.277344c-1.269532 0-2.507813.132812-3.714844.347656 5.257812 3.824219 8.6875 10.007812 8.6875 17.007812 0 10.351563-7.484375 18.9375-17.332032 20.695313 3.472657 2.527344 7.734376 4.039063 12.359376 4.039063 11.621093 0 21.042968-9.421876 21.042968-21.046876 0-11.621093-9.421875-21.042968-21.042968-21.042968zm0 0" fill="#ffc738"/><path d="m85.996094 28.382812c-1.269532 0-2.507813.132813-3.714844.347657 5.257812 3.824219 8.6875 10.007812 8.6875 17.007812 0 10.351563-7.484375 18.941407-17.332031 20.699219 3.472656 2.527344 7.734375 4.035156 12.359375 4.035156 11.621094 0 21.042968-9.421875 21.042968-21.042968 0-11.625-9.421874-21.046876-21.042968-21.046876zm0 0" fill="#fab700"/><path d="m50.464844 338.804688c-1.273438 0-2.507813.128906-3.714844.34375 5.253906 3.828124 8.6875 10.011718 8.6875 17.011718 0 10.351563-7.484375 18.9375-17.332031 20.695313 3.472656 2.527343 7.734375 4.039062 12.359375 4.039062 11.621094 0 21.042968-9.421875 21.042968-21.046875 0-11.621094-9.421874-21.042968-21.042968-21.042968zm0 0" fill="#ffc738"/><path d="m457.105469 101.257812c-.6875 0-1.371094.035157-2.050781.082032 8.339843 4.84375 13.949218 13.863281 13.949218 24.195312 0 14.757813-11.429687 26.835938-25.917968 27.886719 4.121093 2.394531 8.910156 3.773437 14.019531 3.773437 15.449219 0 27.972656-12.523437 27.972656-27.96875 0-15.449218-12.523437-27.96875-27.972656-27.96875zm0 0" fill="#faa200"/><path d="m402.246094 34.382812 1.90625 7.777344c3.085937 12.605469 11.84375 21.488282 23.710937 26.738282 1.121094.75 1.121094 2.402343 0 3.148437-11.867187 5.25-20.628906 14.136719-23.710937 26.742187l-1.90625 7.773438c-.390625 1.601562-2.664063 1.601562-3.058594 0l-1.902344-7.773438c-3.085937-12.605468-11.84375-21.492187-23.710937-26.742187-1.125-.746094-1.125-2.398437 0-3.148437 11.867187-5.25 20.625-14.132813 23.710937-26.738282l1.902344-7.777344c.394531-1.601562 2.667969-1.601562 3.058594 0zm0 0" fill="#ffc738"/><path d="m409.890625 68.898438c-7.523437-3.328126-13.789063-8.121094-18.160156-14.386719-4.371094 6.265625-10.636719 11.058593-18.15625 14.386719-1.125.75-1.125 2.398437 0 3.148437 7.519531 3.328125 13.785156 8.121094 18.15625 14.386719 4.371093-6.265625 10.636719-11.058594 18.160156-14.386719 1.121094-.75 1.121094-2.398437 0-3.148437zm0 0" fill="#ffdf57"/><path d="m348.074219 386.132812 1.902343 7.777344c3.085938 12.601563 11.847657 21.488282 23.714844 26.738282 1.121094.75 1.121094 2.398437 0 3.148437-11.867187 5.25-20.628906 14.136719-23.714844 26.742187l-1.902343 7.773438c-.390625 1.601562-2.667969 1.601562-3.058594 0l-1.90625-7.773438c-3.085937-12.605468-11.84375-21.492187-23.710937-26.742187-1.121094-.75-1.121094-2.398437 0-3.148437 11.867187-5.25 20.628906-14.136719 23.710937-26.738282l1.90625-7.777344c.390625-1.601562 2.667969-1.601562 3.058594 0zm0 0" fill="#ffc738"/><path d="m355.714844 420.648438c-7.519532-3.328126-13.785156-8.121094-18.15625-14.386719-4.371094 6.265625-10.636719 11.058593-18.160156 14.386719-1.121094.75-1.121094 2.398437 0 3.148437 7.523437 3.328125 13.789062 8.121094 18.160156 14.386719 4.371094-6.265625 10.636718-11.058594 18.15625-14.386719 1.125-.75 1.125-2.398437 0-3.148437zm0 0" fill="#ffdf57"/><path d="m287.207031 317.359375c2.613281 3.199219 7.324219 3.675781 10.523438 1.0625s3.675781-7.324219 1.066406-10.523437c-24.519531-30.03125-62.183594-45.890626-100.746094-42.414063-53.113281 4.789063-96.105469 44.863281-104.546875 97.453125-.65625 4.078125 2.121094 7.914062 6.199219 8.570312.398437.0625.800781.09375 1.191406.09375 3.609375 0 6.785157-2.617187 7.378907-6.296874 7.355468-45.828126 44.828124-80.746094 91.121093-84.921876 33.609375-3.023437 66.4375 10.792969 87.8125 36.976563zm0 0"/><path d="m296.917969 335.773438c-28.4375-15.125-62.382813-15.160157-90.804688-.101563-39.144531 20.746094-59.195312 65.261719-48.753906 108.261719.828125 3.421875 3.890625 5.714844 7.261719 5.714844.582031 0 1.175781-.066407 1.769531-.210938 4.015625-.976562 6.480469-5.019531 5.503906-9.035156-8.824219-36.34375 8.128907-73.972656 41.222657-91.511719 24.027343-12.730469 52.730468-12.699219 76.777343.089844 3.648438 1.941406 8.175781.554687 10.113281-3.089844 1.941407-3.648437.558594-8.179687-3.089843-10.117187zm0 0"/><path d="m287.777344 363.246094c-26.902344 17.703125-43.210938 47.476562-43.621094 79.640625-.316406 24.773437 8.738281 48.460937 25.5 66.695312 1.476562 1.605469 3.488281 2.417969 5.507812 2.417969 1.808594 0 3.625-.652344 5.0625-1.972656 3.039063-2.792969 3.238282-7.527344.445313-10.566406-14.171875-15.414063-21.828125-35.4375-21.558594-56.382813.347657-27.195313 14.136719-52.367187 36.886719-67.335937 3.453125-2.269532 4.40625-6.910157 2.136719-10.359376-2.269531-3.453124-6.910157-4.40625-10.359375-2.136718zm0 0"/><path d="m401.796875 329.304688c-30.765625-9.386719-64.085937-2.90625-89.132813 17.34375-3.210937 2.59375-3.710937 7.304687-1.113281 10.515624 2.59375 3.214844 7.304688 3.710938 10.515625 1.117188 21.183594-17.121094 49.355469-22.609375 75.363282-14.667969 20.039062 6.113281 36.785156 19.496094 47.160156 37.679688 1.378906 2.417969 3.90625 3.773437 6.503906 3.773437 1.253906 0 2.53125-.316406 3.699219-.984375 3.589843-2.046875 4.835937-6.617187 2.789062-10.203125-12.273437-21.511718-32.085937-37.34375-55.785156-44.574218zm0 0"/><path d="m498.691406 288.742188c-16.710937-27.332032-45.769531-44.527344-77.730468-45.996094-44.03125-2.027344-83.703126 25.972656-96.5 68.082031-1.199219 3.953125 1.03125 8.132813 4.980468 9.332031.726563.21875 1.457032.324219 2.179688.324219 3.207031 0 6.171875-2.078125 7.152344-5.304687 10.808593-35.558594 44.339843-59.199219 81.5-57.492188 26.996093 1.242188 51.539062 15.769531 65.65625 38.859375 2.15625 3.523437 6.761718 4.636719 10.285156 2.476563 3.523437-2.152344 4.632812-6.753907 2.476562-10.28125zm0 0"/><path d="m310.925781 297.203125c4.109375-.421875 7.097657-4.09375 6.679688-8.203125-2.507813-24.535156-14.277344-46.800781-32.480469-62.582031-2.804688-11.449219-7.917969-22.007813-15.21875-31.429688-23.613281-30.46875-64.761719-41.019531-100.070312-25.660156-3.785157 1.644531-5.523438 6.054687-3.875 9.839844 1.648437 3.789062 6.054687 5.519531 9.84375 3.875 29.023437-12.628907 62.859374-3.945313 82.28125 21.109375 2.015624 2.605468 3.808593 5.324218 5.414062 8.132812-37.78125-17.984375-83.019531-9.398437-111.507812 21.683594-2.792969 3.042969-2.585938 7.777344.460937 10.566406 3.042969 2.792969 7.773437 2.585938 10.566406-.460937 24.925781-27.1875 65.0625-33.972657 97.605469-16.496094 23.628906 12.691406 39.367188 36.222656 42.101562 62.945313.390626 3.851562 3.640626 6.71875 7.429688 6.71875.253906 0 .511719-.011719.769531-.039063zm0 0"/><path d="m173.753906 143.375c-1.027344 4.003906 1.382813 8.078125 5.382813 9.105469.625.160156 1.25.238281 1.867187.238281 3.332032 0 6.371094-2.246094 7.238282-5.621094 6.320312-24.605468 24.351562-44.390625 48.234374-52.929687 32.894532-11.761719 69.472657.238281 88.949219 29.175781 2.308594 3.425781 6.957031 4.335938 10.382813 2.027344 3.425781-2.304688 4.335937-6.953125 2.027344-10.378906-23.300782-34.621094-67.050782-48.976563-106.394532-34.910157-28.566406 10.210938-50.132812 33.875-57.6875 63.292969zm0 0"/><path d="m98.25 305.988281c3.519531-2.160156 4.617188-6.769531 2.453125-10.289062-7.289063-11.847657-10.792969-25.488281-10.140625-39.445313 1.484375-31.667968 24.179688-58.222656 55.1875-64.582031 4.046875-.828125 6.652344-4.78125 5.824219-8.828125-.832031-4.046875-4.78125-6.652344-8.828125-5.824219-37.71875 7.734375-65.320313 40.027344-67.125 78.53125-.796875 16.972657 3.472656 33.566407 12.339844 47.988281 1.414062 2.296876 3.867187 3.5625 6.378906 3.5625 1.335937-.003906 2.691406-.359374 3.910156-1.113281zm0 0"/><path d="m43.199219 162.625c28.523437-23.914062 69.507812-25.445312 99.667969-3.730469 3.351562 2.410157 8.027343 1.652344 10.441406-1.699219 2.414062-3.351562 1.652344-8.027343-1.699219-10.441406-35.71875-25.714844-84.25-23.902344-118.019531 4.40625-18.371094 15.402344-30.277344 36.957032-33.5195315 60.691406-.5585935 4.089844 2.3046875 7.863282 6.3984375 8.421876.34375.046874.6875.070312 1.023438.070312 3.679687 0 6.886718-2.71875 7.402343-6.46875 2.734375-20.042969 12.789063-38.242188 28.304688-51.25zm0 0"/><path d="m157.144531 128.847656c1.238281 0 2.492188-.308594 3.648438-.957031 3.605469-2.015625 4.890625-6.578125 2.871093-10.179687-11.222656-20.027344-11.78125-44.214844-1.492187-64.703126 14.167969-28.21875 45.570313-43.199218 76.363281-36.433593 4.03125.886719 8.023438-1.664063 8.90625-5.699219.890625-4.035156-1.664062-8.023438-5.699218-8.910156-37.476563-8.234375-75.699219 9.992187-92.941407 44.328125-12.519531 24.933593-11.839843 54.363281 1.8125 78.730469 1.371094 2.445312 3.914063 3.824218 6.53125 3.824218zm0 0"/><path d="m396.585938 154.796875c-15.730469 0-28.527344 12.796875-28.527344 28.523437 0 15.730469 12.796875 28.527344 28.527344 28.527344 15.726562 0 28.523437-12.796875 28.523437-28.527344 0-15.726562-12.796875-28.523437-28.523437-28.523437zm0 42.089844c-7.480469 0-13.566407-6.085938-13.566407-13.566407 0-7.480468 6.085938-13.566406 13.566407-13.566406 7.480468 0 13.566406 6.085938 13.566406 13.566406 0 7.480469-6.085938 13.566407-13.566406 13.566407zm0 0"/><path d="m85.996094 77.953125c15.730468 0 28.523437-12.796875 28.523437-28.527344 0-15.726562-12.796875-28.523437-28.523437-28.523437-15.726563 0-28.523438 12.796875-28.523438 28.523437 0 15.730469 12.792969 28.527344 28.523438 28.527344zm0-42.089844c7.480468 0 13.566406 6.085938 13.566406 13.566407 0 7.480468-6.085938 13.5625-13.566406 13.5625-7.480469 0-13.566406-6.085938-13.566406-13.566407s6.085937-13.5625 13.566406-13.5625zm0 0"/><path d="m50.464844 331.324219c-15.730469 0-28.527344 12.796875-28.527344 28.523437 0 15.730469 12.796875 28.527344 28.527344 28.527344 15.726562 0 28.523437-12.796875 28.523437-28.527344 0-15.726562-12.796875-28.523437-28.523437-28.523437zm0 42.089843c-7.480469 0-13.566406-6.085937-13.566406-13.566406 0-7.480468 6.082031-13.566406 13.566406-13.566406 7.480468 0 13.566406 6.085938 13.566406 13.566406 0 7.480469-6.089844 13.566406-13.566406 13.566406zm0 0"/><path d="m436.613281 108.777344c2.074219 3.574218 6.652344 4.789062 10.226563 2.710937 3.101562-1.800781 6.652344-2.753906 10.269531-2.753906 11.296875 0 20.488281 9.195313 20.488281 20.492187 0 11.296876-9.191406 20.488282-20.488281 20.488282-8.257813 0-15.667969-4.914063-18.882813-12.515625-1.609374-3.804688-6-5.585938-9.800781-3.976563-3.804687 1.609375-5.585937 5.996094-3.976562 9.800782 5.5625 13.152343 18.382812 21.648437 32.660156 21.648437 19.546875 0 35.449219-15.902344 35.449219-35.445313 0-19.546874-15.902344-35.449218-35.449219-35.449218-6.253906 0-12.402344 1.652344-17.78125 4.777344-3.574219 2.074218-4.789063 6.652343-2.714844 10.222656zm0 0"/><path d="m369.425781 78.269531c.355469.238281.730469.445313 1.121094.617188 10.542969 4.664062 17.09375 11.957031 19.472656 21.679687l1.90625 7.773438c.992188 4.0625 4.609375 6.902344 8.792969 6.902344s7.796875-2.835938 8.792969-6.902344l1.90625-7.773438c2.378906-9.722656 8.929687-17.015625 19.472656-21.679687.390625-.171875.765625-.378907 1.121094-.617188 2.613281-1.742187 4.171875-4.65625 4.171875-7.796875s-1.558594-6.054687-4.171875-7.796875c-.355469-.238281-.730469-.445312-1.121094-.617187-10.542969-4.664063-17.09375-11.957032-19.476563-21.679688l-1.902343-7.773437c0-.003907 0-.003907 0-.003907-.996094-4.0625-4.613281-6.898437-8.796875-6.898437s-7.796875 2.839844-8.792969 6.902344l-1.902344 7.773437c-2.378906 9.722656-8.933593 17.015625-19.472656 21.679688-.394531.171875-.769531.378906-1.125.617187-2.613281 1.742188-4.171875 4.65625-4.171875 7.796875s1.5625 6.054688 4.175781 7.796875zm31.292969-24.128906c3.371094 6.441406 8.300781 11.9375 14.652344 16.332031-6.351563 4.394532-11.28125 9.890625-14.652344 16.332032-3.371094-6.441407-8.304688-11.9375-14.65625-16.332032 6.351562-4.394531 11.285156-9.890625 14.65625-16.332031zm0 0"/><path d="m377.839844 414.425781c-.359375-.238281-.734375-.445312-1.125-.617187-10.542969-4.664063-17.09375-11.957032-19.472656-21.679688l-1.902344-7.773437c-.996094-4.0625-4.613282-6.902344-8.796875-6.902344-4.183594 0-7.796875 2.839844-8.792969 6.902344l-1.902344 7.773437c-2.382812 9.722656-8.933594 17.015625-19.476562 21.679688-.390625.171875-.765625.378906-1.121094.617187-2.613281 1.742188-4.171875 4.65625-4.171875 7.796875s1.558594 6.054688 4.171875 7.796875c.355469.238281.730469.445313 1.121094.617188 10.542968 4.664062 17.09375 11.957031 19.472656 21.675781l1.90625 7.777344c.992188 4.0625 4.609375 6.902344 8.792969 6.902344 4.183593 0 7.800781-2.839844 8.792969-6.902344l1.90625-7.777344c2.378906-9.71875 8.929687-17.011719 19.472656-21.675781.390625-.171875.765625-.378907 1.121094-.617188 2.613281-1.742187 4.175781-4.65625 4.175781-7.796875s-1.558594-6.054687-4.171875-7.796875zm-37.03125-26.515625v.007813c0-.003907 0-.003907 0-.007813zm5.734375 50.644532c-3.371094-6.4375-8.300781-11.9375-14.652344-16.332032 6.351563-4.394531 11.28125-9.890625 14.652344-16.332031 3.371093 6.441406 8.304687 11.9375 14.65625 16.332031-6.351563 4.394532-11.285157 9.890625-14.65625 16.332032zm0 0"/></svg>