<svg height="512pt" viewBox="-66 0 512 512" width="512pt" xmlns="http://www.w3.org/2000/svg"><path d="m336.257812 65.445312c0-26.394531-21.394531-47.789062-47.785156-47.789062-16.34375 0-30.761718 8.207031-39.378906 20.71875-10.296875-22.632812-33.09375-38.375-59.578125-38.375-26.488281 0-49.28125 15.742188-59.582031 38.375-8.617188-12.511719-23.035156-20.71875-39.375-20.71875-26.394532 0-47.789063 21.394531-47.789063 47.789062-23.621093 0-42.769531 19.148438-42.769531 42.769532v403.785156h379.027344v-403.785156c0-23.621094-19.144532-42.769532-42.769532-42.769532zm0 0" fill="#aa6615"/><path d="m15.695312 496.304688v-388.089844c0-14.953125 12.121094-27.078125 27.074219-27.078125h.625c8.320313 0 15.070313-6.746094 15.070313-15.070313 0-15.855468 11.273437-29.765625 26.925781-32.300781 12.417969-2.011719 24.640625 3.378906 31.621094 13.511719 6.917969 10.046875 22.152343 8.703125 27.207031-2.402344 8.066406-17.726562 25.847656-29.179688 45.296875-29.179688s37.226563 11.453126 45.296875 29.179688c5.050781 11.105469 20.289062 12.449219 27.207031 2.402344 6.976563-10.132813 19.199219-15.523438 31.621094-13.511719 15.652344 2.535156 26.925781 16.445313 26.925781 32.300781 0 8.324219 6.746094 15.070313 15.070313 15.070313h.625c14.953125 0 27.074219 12.125 27.074219 27.078125v388.089844zm0 0" fill="#bf822b"/><path d="m54.535156 113.941406h269.957032v347.671875h-269.957032zm0 0" fill="#ccd2d6"/><path d="m70.230469 129.632812h238.570312v316.285157h-238.570312zm0 0" fill="#fff"/><g fill="#aa6615"><path d="m324.492188 466.84375h-269.957032c-2.886718 0-5.230468-2.34375-5.230468-5.230469v-347.671875c0-2.890625 2.34375-5.230468 5.230468-5.230468h269.957032c2.890624 0 5.230468 2.339843 5.230468 5.230468v347.671875c0 2.886719-2.339844 5.230469-5.230468 5.230469zm-264.722657-10.464844h259.492188v-337.207031h-259.492188zm0 0"/><path d="m207.238281 56.773438c0 9.789062-7.933593 17.722656-17.722656 17.722656s-17.726563-7.933594-17.726563-17.722656c0-9.789063 7.9375-17.726563 17.726563-17.726563s17.722656 7.9375 17.722656 17.726563zm0 0"/><path d="m286.316406 64.621094c-6.972656 0-10.480468-8.878906-5.3125-13.625 2.328125-2.140625 5.808594-2.65625 8.664063-1.316406 3.136719 1.472656 4.964843 4.96875 4.386719 8.386718-.632813 3.722656-3.949219 6.554688-7.738282 6.554688zm0 0"/><path d="m90.554688 64.621094c-6.921876 0-10.429688-8.761719-5.40625-13.535156 2.433593-2.308594 6.144531-2.800782 9.105468-1.234376 2.957032 1.570313 4.597656 4.96875 4.03125 8.261719-.636718 3.710938-3.964844 6.507813-7.730468 6.507813zm0 0"/></g></svg>