<svg xmlns="http://www.w3.org/2000/svg" xmlns:xlink="http://www.w3.org/1999/xlink" width="375" height="177" viewBox="0 0 375 177">
  <defs>
    <style>
      .cls-1 {
        clip-path: url(#clip-로고);
      }

      .cls-2 {
        fill: #f0bdd5;
      }

      .cls-3, .cls-4, .cls-8 {
        fill: #fff;
      }

      .cls-3 {
        opacity: 0.3;
      }

      .cls-4 {
        opacity: 0.2;
      }

      .cls-5 {
        fill: #e978a0;
        opacity: 0.15;
      }

      .cls-6 {
        opacity: 0.05;
      }

      .cls-7 {
        fill: #011f09;
        font-size: 20px;
        font-family: SSGD;
        letter-spacing: 0.1em;
      }
    </style>
    <clipPath id="clip-로고">
      <rect width="375" height="177"/>
    </clipPath>
  </defs>
  <g id="로고" class="cls-1">
    <rect class="cls-8" width="375" height="177"/>
    <g id="flower" transform="translate(16 41.484)">
      <path id="패스_1" data-name="패스 1" class="cls-2" d="M157.1,36.957l16.932,23.3,16.932-23.3a11.917,11.917,0,0,0,0-14.009l-7.129-9.812a3.931,3.931,0,0,0-6.046-.379l-1.947,2.075a2.481,2.481,0,0,1-3.619,0l-1.947-2.075a3.931,3.931,0,0,0-6.046.379L157.1,22.948A11.917,11.917,0,0,0,157.1,36.957Z" transform="translate(-125.432)"/>
      <path id="패스_2" data-name="패스 2" class="cls-3" d="M218.889,129.991l6.389,14.417,6.389-14.417a9.455,9.455,0,0,0,.122-7.373l-2.612-6.464a1.237,1.237,0,0,0-2.17-.233l-.778,1.143a1.151,1.151,0,0,1-1.9,0l-.778-1.143a1.237,1.237,0,0,0-2.17.233l-2.612,6.465A9.452,9.452,0,0,0,218.889,129.991Z" transform="translate(-176.677 -84.146)"/>
      <path id="패스_3" data-name="패스 3" class="cls-2" d="M21.2,156.767l27.4-8.9-16.932-23.3a11.917,11.917,0,0,0-13.323-4.329L6.811,123.98a3.931,3.931,0,0,0-2.229,5.633l1.372,2.493a2.481,2.481,0,0,1-1.118,3.442l-2.575,1.21a3.931,3.931,0,0,0-1.508,5.868l7.129,9.812A11.917,11.917,0,0,0,21.2,156.767Z" transform="translate(0 -87.604)"/>
      <g id="그룹_1" data-name="그룹 1" transform="translate(0 32.044)">
        <path id="패스_4" data-name="패스 4" class="cls-4" d="M21.2,156.767l27.4-8.9-16.932-23.3a11.917,11.917,0,0,0-13.323-4.329L6.811,123.98a3.931,3.931,0,0,0-2.229,5.633l1.372,2.493a2.481,2.481,0,0,1-1.118,3.442l-2.575,1.21a3.931,3.931,0,0,0-1.508,5.868l7.129,9.812A11.917,11.917,0,0,0,21.2,156.767Z" transform="translate(0 -119.648)"/>
        <path id="패스_5" data-name="패스 5" class="cls-3" d="M118.614,214.646l15.685-1.621-11.737-10.531a9.455,9.455,0,0,0-6.974-2.395l-6.955.486a1.237,1.237,0,0,0-.892,1.992l.847,1.093a1.151,1.151,0,0,1-.588,1.81l-1.327.387a1.237,1.237,0,0,0-.449,2.136l5.341,4.482A9.453,9.453,0,0,0,118.614,214.646Z" transform="translate(-85.699 -184.808)"/>
      </g>
      <path id="패스_6" data-name="패스 6" class="cls-2" d="M103.949,297.09V268.284l-27.4,8.9a11.917,11.917,0,0,0-8.234,11.334v12.128a3.931,3.931,0,0,0,4.669,3.861l2.8-.534A2.481,2.481,0,0,1,78.71,306.1l.356,2.823a3.931,3.931,0,0,0,5.114,3.247l11.535-3.748A11.917,11.917,0,0,0,103.949,297.09Z" transform="translate(-55.349 -208.022)"/>
      <path id="패스_7" data-name="패스 7" class="cls-5" d="M103.949,297.09V268.284l-27.4,8.9a11.917,11.917,0,0,0-8.234,11.334v12.128a3.931,3.931,0,0,0,4.669,3.861l2.8-.534A2.481,2.481,0,0,1,78.71,306.1l.356,2.823a3.931,3.931,0,0,0,5.114,3.247l11.535-3.748A11.917,11.917,0,0,0,103.949,297.09Z" transform="translate(-55.349 -208.022)"/>
      <path id="패스_8" data-name="패스 8" class="cls-3" d="M168.2,283.7l3.305-15.419-13.643,7.908a9.455,9.455,0,0,0-4.432,5.893l-1.687,6.765a1.237,1.237,0,0,0,1.619,1.464l1.3-.467a1.151,1.151,0,0,1,1.539,1.119l-.043,1.382a1.237,1.237,0,0,0,1.892,1.087l5.913-3.695A9.458,9.458,0,0,0,168.2,283.7Z" transform="translate(-122.906 -208.022)"/>
      <path id="패스_9" data-name="패스 9" class="cls-2" d="M283.4,156.767l-27.4-8.9,16.932-23.3a11.917,11.917,0,0,1,13.323-4.329l11.535,3.748a3.931,3.931,0,0,1,2.229,5.633l-1.372,2.493a2.481,2.481,0,0,0,1.118,3.442l2.575,1.21a3.931,3.931,0,0,1,1.508,5.868l-7.129,9.812A11.917,11.917,0,0,1,283.4,156.767Z" transform="translate(-207.401 -87.604)"/>
      <path id="패스_10" data-name="패스 10" class="cls-5" d="M283.4,156.767l-27.4-8.9,16.932-23.3a11.917,11.917,0,0,1,13.323-4.329l11.535,3.748a3.931,3.931,0,0,1,2.229,5.633l-1.372,2.493a2.481,2.481,0,0,0,1.118,3.442l2.575,1.21a3.931,3.931,0,0,1,1.508,5.868l-7.129,9.812A11.917,11.917,0,0,1,283.4,156.767Z" transform="translate(-207.401 -87.604)"/>
      <path id="패스_11" data-name="패스 11" class="cls-3" d="M271.686,214.646,256,213.025l11.737-10.531a9.455,9.455,0,0,1,6.974-2.395l6.955.486a1.237,1.237,0,0,1,.892,1.992l-.847,1.093a1.151,1.151,0,0,0,.588,1.81l1.327.387a1.237,1.237,0,0,1,.449,2.136l-5.341,4.482A9.453,9.453,0,0,1,271.686,214.646Z" transform="translate(-207.401 -152.764)"/>
      <path id="패스_12" data-name="패스 12" class="cls-2" d="M256,297.09V268.284l27.4,8.9a11.917,11.917,0,0,1,8.234,11.334v12.128a3.931,3.931,0,0,1-4.669,3.861l-2.8-.534a2.481,2.481,0,0,0-2.928,2.127l-.355,2.823a3.931,3.931,0,0,1-5.114,3.247l-11.535-3.748A11.917,11.917,0,0,1,256,297.09Z" transform="translate(-207.401 -208.022)"/>
      <path id="패스_13" data-name="패스 13" class="cls-3" d="M259.306,283.7,256,268.284l13.643,7.908a9.454,9.454,0,0,1,4.432,5.893l1.687,6.765a1.237,1.237,0,0,1-1.619,1.464l-1.3-.467a1.151,1.151,0,0,0-1.539,1.119l.043,1.382a1.237,1.237,0,0,1-1.892,1.087l-5.913-3.695A9.458,9.458,0,0,1,259.306,283.7Z" transform="translate(-207.401 -208.022)"/>
      <g id="그룹_2" data-name="그룹 2" class="cls-6" transform="translate(10.015 19.765)">
        <path id="패스_14" data-name="패스 14" d="M249.925,62.233a1.424,1.424,0,0,1-1.424-1.424v-4.42a1.424,1.424,0,0,1,2.848,0v4.42A1.424,1.424,0,0,1,249.925,62.233Z" transform="translate(-211.34 -54.965)"/>
        <path id="패스_15" data-name="패스 15" d="M58.382,201.394a1.423,1.423,0,0,1-.44-.07l-4.2-1.366a1.424,1.424,0,1,1,.88-2.708l4.2,1.366a1.424,1.424,0,0,1-.44,2.778Z" transform="translate(-52.754 -170.181)"/>
        <path id="패스_16" data-name="패스 16" d="M128.947,414.881a1.424,1.424,0,0,1-1.151-2.261l2.6-3.576a1.424,1.424,0,0,1,2.3,1.674l-2.6,3.576A1.422,1.422,0,0,1,128.947,414.881Z" transform="translate(-113.329 -341.349)"/>
        <path id="패스_17" data-name="패스 17" d="M359.814,414.882a1.422,1.422,0,0,1-1.153-.587l-2.6-3.576a1.424,1.424,0,0,1,2.3-1.674l2.6,3.576a1.424,1.424,0,0,1-1.151,2.261Z" transform="translate(-298.261 -341.35)"/>
        <path id="패스_18" data-name="패스 18" d="M423.525,201.394a1.424,1.424,0,0,1-.44-2.778l4.2-1.366a1.424,1.424,0,0,1,.88,2.708l-4.2,1.366A1.411,1.411,0,0,1,423.525,201.394Z" transform="translate(-351.983 -170.181)"/>
      </g>
    </g>
    <g id="flower-2" data-name="flower" transform="translate(53.132 19.608) rotate(-16)">
      <path id="패스_1-2" data-name="패스 1" class="cls-2" d="M157.473,41.116l19.7,27.113,19.7-27.113a13.865,13.865,0,0,0,0-16.3L188.577,13.4a4.573,4.573,0,0,0-7.035-.441l-2.265,2.414a2.887,2.887,0,0,1-4.21,0L172.8,12.96a4.573,4.573,0,0,0-7.035.441l-8.294,11.416A13.865,13.865,0,0,0,157.473,41.116Z" transform="translate(-120.628)"/>
      <path id="패스_2-2" data-name="패스 2" class="cls-3" d="M219.021,132.379l7.433,16.773,7.433-16.773a11,11,0,0,0,.142-8.578l-3.039-7.521a1.439,1.439,0,0,0-2.525-.271l-.9,1.33a1.339,1.339,0,0,1-2.214,0l-.9-1.33a1.439,1.439,0,0,0-2.525.271L218.88,123.8A11,11,0,0,0,219.021,132.379Z" transform="translate(-169.91 -80.923)"/>
      <path id="패스_3-2" data-name="패스 3" class="cls-2" d="M24.67,162.834l31.874-10.357-19.7-27.114a13.864,13.864,0,0,0-15.5-5.037l-13.42,4.36a4.573,4.573,0,0,0-2.593,6.554l1.6,2.9a2.887,2.887,0,0,1-1.3,4l-3,1.408a4.573,4.573,0,0,0-1.754,6.827L9.169,157.8A13.865,13.865,0,0,0,24.67,162.834Z" transform="translate(0 -84.249)"/>
      <g id="그룹_1-2" data-name="그룹 1" transform="translate(0 35.399)">
        <path id="패스_4-2" data-name="패스 4" class="cls-4" d="M24.67,162.834l31.874-10.357-19.7-27.114a13.864,13.864,0,0,0-15.5-5.037l-13.42,4.36a4.573,4.573,0,0,0-2.593,6.554l1.6,2.9a2.887,2.887,0,0,1-1.3,4l-3,1.408a4.573,4.573,0,0,0-1.754,6.827L9.169,157.8A13.865,13.865,0,0,0,24.67,162.834Z" transform="translate(0 -119.648)"/>
        <path id="패스_5-2" data-name="패스 5" class="cls-3" d="M120.711,217.028l18.249-1.886-13.655-12.252a11,11,0,0,0-8.114-2.786l-8.092.566a1.439,1.439,0,0,0-1.037,2.317l.985,1.271a1.339,1.339,0,0,1-.684,2.106l-1.544.45a1.439,1.439,0,0,0-.523,2.485l6.214,5.214A11,11,0,0,0,120.711,217.028Z" transform="translate(-82.417 -182.312)"/>
      </g>
      <path id="패스_6-2" data-name="패스 6" class="cls-2" d="M109.773,301.8V268.284L77.9,278.641a13.864,13.864,0,0,0-9.58,13.186v14.111a4.573,4.573,0,0,0,5.432,4.492L77,309.807a2.887,2.887,0,0,1,3.406,2.475l.414,3.285a4.573,4.573,0,0,0,5.95,3.778l13.42-4.36A13.865,13.865,0,0,0,109.773,301.8Z" transform="translate(-53.229 -200.055)"/>
      <path id="패스_7-2" data-name="패스 7" class="cls-5" d="M109.773,301.8V268.284L77.9,278.641a13.864,13.864,0,0,0-9.58,13.186v14.111a4.573,4.573,0,0,0,5.432,4.492L77,309.807a2.887,2.887,0,0,1,3.406,2.475l.414,3.285a4.573,4.573,0,0,0,5.95,3.778l13.42-4.36A13.865,13.865,0,0,0,109.773,301.8Z" transform="translate(-53.229 -200.055)"/>
      <path id="패스_8-2" data-name="패스 8" class="cls-3" d="M170.9,286.223l3.846-17.939-15.873,9.2a11,11,0,0,0-5.157,6.856l-1.962,7.871a1.44,1.44,0,0,0,1.883,1.7l1.514-.544a1.339,1.339,0,0,1,1.791,1.3l-.049,1.608a1.439,1.439,0,0,0,2.2,1.265l6.879-4.3A11,11,0,0,0,170.9,286.223Z" transform="translate(-118.198 -200.055)"/>
      <path id="패스_9-2" data-name="패스 9" class="cls-2" d="M287.875,162.834,256,152.478l19.7-27.114a13.864,13.864,0,0,1,15.5-5.037l13.42,4.36a4.573,4.573,0,0,1,2.594,6.554l-1.6,2.9a2.887,2.887,0,0,0,1.3,4l3,1.408a4.573,4.573,0,0,1,1.754,6.827L303.376,157.8A13.865,13.865,0,0,1,287.875,162.834Z" transform="translate(-199.457 -84.249)"/>
      <path id="패스_10-2" data-name="패스 10" class="cls-5" d="M287.875,162.834,256,152.478l19.7-27.114a13.864,13.864,0,0,1,15.5-5.037l13.42,4.36a4.573,4.573,0,0,1,2.594,6.554l-1.6,2.9a2.887,2.887,0,0,0,1.3,4l3,1.408a4.573,4.573,0,0,1,1.754,6.827L303.376,157.8A13.865,13.865,0,0,1,287.875,162.834Z" transform="translate(-199.457 -84.249)"/>
      <path id="패스_11-2" data-name="패스 11" class="cls-3" d="M274.25,217.028,256,215.142l13.655-12.252a11,11,0,0,1,8.114-2.786l8.092.566a1.439,1.439,0,0,1,1.037,2.317l-.985,1.271a1.339,1.339,0,0,0,.684,2.106l1.544.45a1.439,1.439,0,0,1,.523,2.485l-6.214,5.214A11,11,0,0,1,274.25,217.028Z" transform="translate(-199.457 -146.913)"/>
      <path id="패스_12-2" data-name="패스 12" class="cls-2" d="M256,301.8V268.284l31.874,10.357a13.865,13.865,0,0,1,9.58,13.186v14.111a4.573,4.573,0,0,1-5.432,4.492l-3.252-.622a2.887,2.887,0,0,0-3.406,2.475l-.413,3.285a4.573,4.573,0,0,1-5.95,3.778l-13.42-4.36A13.865,13.865,0,0,1,256,301.8Z" transform="translate(-199.457 -200.055)"/>
      <path id="패스_13-2" data-name="패스 13" class="cls-3" d="M259.847,286.223,256,268.284l15.873,9.2a11,11,0,0,1,5.157,6.856l1.962,7.871a1.44,1.44,0,0,1-1.883,1.7l-1.514-.544a1.339,1.339,0,0,0-1.791,1.3l.049,1.608a1.439,1.439,0,0,1-2.2,1.265l-6.879-4.3A11,11,0,0,1,259.847,286.223Z" transform="translate(-199.457 -200.055)"/>
      <g id="그룹_2-2" data-name="그룹 2" class="cls-6" transform="translate(11.652 21.113)">
        <path id="패스_14-2" data-name="패스 14" d="M250.158,63.421a1.657,1.657,0,0,1-1.657-1.657V56.622a1.657,1.657,0,1,1,3.313,0v5.143A1.656,1.656,0,0,1,250.158,63.421Z" transform="translate(-205.266 -54.965)"/>
        <path id="패스_15-2" data-name="패스 15" d="M59.3,202.083A1.656,1.656,0,0,1,58.79,202L53.9,200.412a1.656,1.656,0,1,1,1.024-3.151l4.891,1.589a1.657,1.657,0,0,1-.512,3.232Z" transform="translate(-52.754 -165.769)"/>
        <path id="패스_16-2" data-name="패스 16" d="M129.179,415.931a1.657,1.657,0,0,1-1.339-2.63l3.023-4.16a1.657,1.657,0,0,1,2.68,1.947l-3.023,4.16A1.654,1.654,0,0,1,129.179,415.931Z" transform="translate(-111.009 -330.38)"/>
        <path id="패스_17-2" data-name="패스 17" d="M360.472,415.932a1.654,1.654,0,0,1-1.342-.683l-3.023-4.16a1.657,1.657,0,0,1,2.68-1.947l3.023,4.16a1.657,1.657,0,0,1-1.339,2.63Z" transform="translate(-288.858 -330.381)"/>
        <path id="패스_18-2" data-name="패스 18" d="M423.757,202.082a1.657,1.657,0,0,1-.512-3.232l4.891-1.589a1.656,1.656,0,1,1,1.024,3.151L424.269,202A1.641,1.641,0,0,1,423.757,202.082Z" transform="translate(-340.522 -165.768)"/>
      </g>
    </g>
    <g id="flower-3" data-name="flower" transform="translate(162.41 -6.355) rotate(19)">
      <path id="패스_1-3" data-name="패스 1" class="cls-2" d="M157.473,41.116l19.7,27.113,19.7-27.113a13.865,13.865,0,0,0,0-16.3L188.577,13.4a4.573,4.573,0,0,0-7.035-.441l-2.265,2.414a2.887,2.887,0,0,1-4.21,0L172.8,12.96a4.573,4.573,0,0,0-7.035.441l-8.294,11.416A13.865,13.865,0,0,0,157.473,41.116Z" transform="translate(-120.628)"/>
      <path id="패스_2-3" data-name="패스 2" class="cls-3" d="M219.021,132.379l7.433,16.773,7.433-16.773a11,11,0,0,0,.142-8.578l-3.039-7.521a1.439,1.439,0,0,0-2.525-.271l-.9,1.33a1.339,1.339,0,0,1-2.214,0l-.9-1.33a1.439,1.439,0,0,0-2.525.271L218.88,123.8A11,11,0,0,0,219.021,132.379Z" transform="translate(-169.91 -80.923)"/>
      <path id="패스_3-3" data-name="패스 3" class="cls-2" d="M24.67,162.834l31.874-10.357-19.7-27.114a13.864,13.864,0,0,0-15.5-5.037l-13.42,4.36a4.573,4.573,0,0,0-2.593,6.554l1.6,2.9a2.887,2.887,0,0,1-1.3,4l-3,1.408a4.573,4.573,0,0,0-1.754,6.827L9.169,157.8A13.865,13.865,0,0,0,24.67,162.834Z" transform="translate(0 -84.249)"/>
      <g id="그룹_1-3" data-name="그룹 1" transform="translate(0 35.399)">
        <path id="패스_4-3" data-name="패스 4" class="cls-4" d="M24.67,162.834l31.874-10.357-19.7-27.114a13.864,13.864,0,0,0-15.5-5.037l-13.42,4.36a4.573,4.573,0,0,0-2.593,6.554l1.6,2.9a2.887,2.887,0,0,1-1.3,4l-3,1.408a4.573,4.573,0,0,0-1.754,6.827L9.169,157.8A13.865,13.865,0,0,0,24.67,162.834Z" transform="translate(0 -119.648)"/>
        <path id="패스_5-3" data-name="패스 5" class="cls-3" d="M120.711,217.028l18.249-1.886-13.655-12.252a11,11,0,0,0-8.114-2.786l-8.092.566a1.439,1.439,0,0,0-1.037,2.317l.985,1.271a1.339,1.339,0,0,1-.684,2.106l-1.544.45a1.439,1.439,0,0,0-.523,2.485l6.214,5.214A11,11,0,0,0,120.711,217.028Z" transform="translate(-82.417 -182.312)"/>
      </g>
      <path id="패스_6-3" data-name="패스 6" class="cls-2" d="M109.773,301.8V268.284L77.9,278.641a13.864,13.864,0,0,0-9.58,13.186v14.111a4.573,4.573,0,0,0,5.432,4.492L77,309.807a2.887,2.887,0,0,1,3.406,2.475l.414,3.285a4.573,4.573,0,0,0,5.95,3.778l13.42-4.36A13.865,13.865,0,0,0,109.773,301.8Z" transform="translate(-53.229 -200.055)"/>
      <path id="패스_7-3" data-name="패스 7" class="cls-5" d="M109.773,301.8V268.284L77.9,278.641a13.864,13.864,0,0,0-9.58,13.186v14.111a4.573,4.573,0,0,0,5.432,4.492L77,309.807a2.887,2.887,0,0,1,3.406,2.475l.414,3.285a4.573,4.573,0,0,0,5.95,3.778l13.42-4.36A13.865,13.865,0,0,0,109.773,301.8Z" transform="translate(-53.229 -200.055)"/>
      <path id="패스_8-3" data-name="패스 8" class="cls-3" d="M170.9,286.223l3.846-17.939-15.873,9.2a11,11,0,0,0-5.157,6.856l-1.962,7.871a1.44,1.44,0,0,0,1.883,1.7l1.514-.544a1.339,1.339,0,0,1,1.791,1.3l-.049,1.608a1.439,1.439,0,0,0,2.2,1.265l6.879-4.3A11,11,0,0,0,170.9,286.223Z" transform="translate(-118.198 -200.055)"/>
      <path id="패스_9-3" data-name="패스 9" class="cls-2" d="M287.875,162.834,256,152.478l19.7-27.114a13.864,13.864,0,0,1,15.5-5.037l13.42,4.36a4.573,4.573,0,0,1,2.594,6.554l-1.6,2.9a2.887,2.887,0,0,0,1.3,4l3,1.408a4.573,4.573,0,0,1,1.754,6.827L303.376,157.8A13.865,13.865,0,0,1,287.875,162.834Z" transform="translate(-199.457 -84.249)"/>
      <path id="패스_10-3" data-name="패스 10" class="cls-5" d="M287.875,162.834,256,152.478l19.7-27.114a13.864,13.864,0,0,1,15.5-5.037l13.42,4.36a4.573,4.573,0,0,1,2.594,6.554l-1.6,2.9a2.887,2.887,0,0,0,1.3,4l3,1.408a4.573,4.573,0,0,1,1.754,6.827L303.376,157.8A13.865,13.865,0,0,1,287.875,162.834Z" transform="translate(-199.457 -84.249)"/>
      <path id="패스_11-3" data-name="패스 11" class="cls-3" d="M274.25,217.028,256,215.142l13.655-12.252a11,11,0,0,1,8.114-2.786l8.092.566a1.439,1.439,0,0,1,1.037,2.317l-.985,1.271a1.339,1.339,0,0,0,.684,2.106l1.544.45a1.439,1.439,0,0,1,.523,2.485l-6.214,5.214A11,11,0,0,1,274.25,217.028Z" transform="translate(-199.457 -146.913)"/>
      <path id="패스_12-3" data-name="패스 12" class="cls-2" d="M256,301.8V268.284l31.874,10.357a13.865,13.865,0,0,1,9.58,13.186v14.111a4.573,4.573,0,0,1-5.432,4.492l-3.252-.622a2.887,2.887,0,0,0-3.406,2.475l-.413,3.285a4.573,4.573,0,0,1-5.95,3.778l-13.42-4.36A13.865,13.865,0,0,1,256,301.8Z" transform="translate(-199.457 -200.055)"/>
      <path id="패스_13-3" data-name="패스 13" class="cls-3" d="M259.847,286.223,256,268.284l15.873,9.2a11,11,0,0,1,5.157,6.856l1.962,7.871a1.44,1.44,0,0,1-1.883,1.7l-1.514-.544a1.339,1.339,0,0,0-1.791,1.3l.049,1.608a1.439,1.439,0,0,1-2.2,1.265l-6.879-4.3A11,11,0,0,1,259.847,286.223Z" transform="translate(-199.457 -200.055)"/>
      <g id="그룹_2-3" data-name="그룹 2" class="cls-6" transform="translate(11.652 21.113)">
        <path id="패스_14-3" data-name="패스 14" d="M250.158,63.421a1.657,1.657,0,0,1-1.657-1.657V56.622a1.657,1.657,0,1,1,3.313,0v5.143A1.656,1.656,0,0,1,250.158,63.421Z" transform="translate(-205.266 -54.965)"/>
        <path id="패스_15-3" data-name="패스 15" d="M59.3,202.083A1.656,1.656,0,0,1,58.79,202L53.9,200.412a1.656,1.656,0,1,1,1.024-3.151l4.891,1.589a1.657,1.657,0,0,1-.512,3.232Z" transform="translate(-52.754 -165.769)"/>
        <path id="패스_16-3" data-name="패스 16" d="M129.179,415.931a1.657,1.657,0,0,1-1.339-2.63l3.023-4.16a1.657,1.657,0,0,1,2.68,1.947l-3.023,4.16A1.654,1.654,0,0,1,129.179,415.931Z" transform="translate(-111.009 -330.38)"/>
        <path id="패스_17-3" data-name="패스 17" d="M360.472,415.932a1.654,1.654,0,0,1-1.342-.683l-3.023-4.16a1.657,1.657,0,0,1,2.68-1.947l3.023,4.16a1.657,1.657,0,0,1-1.339,2.63Z" transform="translate(-288.858 -330.381)"/>
        <path id="패스_18-3" data-name="패스 18" d="M423.757,202.082a1.657,1.657,0,0,1-.512-3.232l4.891-1.589a1.656,1.656,0,1,1,1.024,3.151L424.269,202A1.641,1.641,0,0,1,423.757,202.082Z" transform="translate(-340.522 -165.768)"/>
      </g>
    </g>
    <g id="flower-4" data-name="flower" transform="translate(101.209 61.272) rotate(19)">
      <path id="패스_1-4" data-name="패스 1" class="cls-2" d="M156.7,32.528l13.984,19.247,13.984-19.247a9.842,9.842,0,0,0,0-11.57l-5.887-8.1a3.246,3.246,0,0,0-4.994-.313l-1.608,1.714a2.049,2.049,0,0,1-2.989,0l-1.608-1.714a3.246,3.246,0,0,0-4.994.313l-5.888,8.1A9.842,9.842,0,0,0,156.7,32.528Z" transform="translate(-130.55 0)"/>
      <path id="패스_2-4" data-name="패스 2" class="cls-3" d="M218.747,127.447l5.276,11.907,5.276-11.907a7.809,7.809,0,0,0,.1-6.089l-2.157-5.339a1.022,1.022,0,0,0-1.792-.192l-.642.944a.95.95,0,0,1-1.572,0l-.642-.944a1.022,1.022,0,0,0-1.792.192l-2.157,5.339A7.807,7.807,0,0,0,218.747,127.447Z" transform="translate(-183.885 -87.579)"/>
      <path id="패스_3-4" data-name="패스 3" class="cls-2" d="M17.513,150.3l22.626-7.352L26.155,123.706a9.842,9.842,0,0,0-11-3.575l-9.526,3.1a3.246,3.246,0,0,0-1.841,4.652l1.133,2.059a2.049,2.049,0,0,1-.924,2.843l-2.127,1a3.246,3.246,0,0,0-1.245,4.846l5.888,8.1A9.843,9.843,0,0,0,17.513,150.3Z" transform="translate(0 -91.178)"/>
      <g id="그룹_1-4" data-name="그룹 1" transform="translate(0 28.47)">
        <path id="패스_4-4" data-name="패스 4" class="cls-4" d="M17.513,150.3l22.626-7.352L26.155,123.706a9.842,9.842,0,0,0-11-3.575l-9.526,3.1a3.246,3.246,0,0,0-1.841,4.652l1.133,2.059a2.049,2.049,0,0,1-.924,2.843l-2.127,1a3.246,3.246,0,0,0-1.245,4.846l5.888,8.1A9.843,9.843,0,0,0,17.513,150.3Z" transform="translate(0 -119.648)"/>
        <path id="패스_5-4" data-name="패스 5" class="cls-3" d="M116.38,212.11l12.955-1.339-9.694-8.7a7.809,7.809,0,0,0-5.76-1.978l-5.744.4a1.022,1.022,0,0,0-.736,1.645l.7.9a.951.951,0,0,1-.486,1.495l-1.1.319a1.022,1.022,0,0,0-.371,1.764l4.411,3.7A7.807,7.807,0,0,0,116.38,212.11Z" transform="translate(-89.196 -187.466)"/>
      </g>
      <path id="패스_6-4" data-name="패스 6" class="cls-2" d="M97.746,292.075V268.284L75.12,275.636a9.842,9.842,0,0,0-6.8,9.36v10.017a3.246,3.246,0,0,0,3.856,3.189l2.308-.441a2.049,2.049,0,0,1,2.418,1.757l.294,2.332a3.246,3.246,0,0,0,4.224,2.682l9.526-3.1A9.842,9.842,0,0,0,97.746,292.075Z" transform="translate(-57.607 -216.509)"/>
      <path id="패스_7-4" data-name="패스 7" class="cls-5" d="M97.746,292.075V268.284L75.12,275.636a9.842,9.842,0,0,0-6.8,9.36v10.017a3.246,3.246,0,0,0,3.856,3.189l2.308-.441a2.049,2.049,0,0,1,2.418,1.757l.294,2.332a3.246,3.246,0,0,0,4.224,2.682l9.526-3.1A9.842,9.842,0,0,0,97.746,292.075Z" transform="translate(-57.607 -216.509)"/>
      <path id="패스_8-4" data-name="패스 8" class="cls-3" d="M165.329,281.018l2.73-12.734-11.267,6.531a7.809,7.809,0,0,0-3.661,4.867l-1.393,5.587a1.022,1.022,0,0,0,1.337,1.209l1.074-.386a.95.95,0,0,1,1.271.924l-.035,1.141a1.022,1.022,0,0,0,1.563.9L161.831,286A7.811,7.811,0,0,0,165.329,281.018Z" transform="translate(-127.92 -216.509)"/>
      <path id="패스_9-4" data-name="패스 9" class="cls-2" d="M278.627,150.3,256,142.953l13.984-19.247a9.842,9.842,0,0,1,11-3.575l9.526,3.1a3.246,3.246,0,0,1,1.841,4.652l-1.133,2.059a2.049,2.049,0,0,0,.924,2.843l2.127,1a3.246,3.246,0,0,1,1.245,4.846l-5.888,8.1A9.842,9.842,0,0,1,278.627,150.3Z" transform="translate(-215.862 -91.178)"/>
      <path id="패스_10-4" data-name="패스 10" class="cls-5" d="M278.627,150.3,256,142.953l13.984-19.247a9.842,9.842,0,0,1,11-3.575l9.526,3.1a3.246,3.246,0,0,1,1.841,4.652l-1.133,2.059a2.049,2.049,0,0,0,.924,2.843l2.127,1a3.246,3.246,0,0,1,1.245,4.846l-5.888,8.1A9.842,9.842,0,0,1,278.627,150.3Z" transform="translate(-215.862 -91.178)"/>
      <path id="패스_11-4" data-name="패스 11" class="cls-3" d="M268.955,212.11,256,210.771l9.694-8.7a7.809,7.809,0,0,1,5.76-1.978l5.744.4a1.022,1.022,0,0,1,.736,1.645l-.7.9a.951.951,0,0,0,.486,1.495l1.1.319a1.022,1.022,0,0,1,.371,1.764l-4.411,3.7A7.807,7.807,0,0,1,268.955,212.11Z" transform="translate(-215.862 -158.996)"/>
      <path id="패스_12-4" data-name="패스 12" class="cls-2" d="M256,292.075V268.284l22.626,7.352a9.842,9.842,0,0,1,6.8,9.36v10.017a3.246,3.246,0,0,1-3.856,3.189l-2.308-.441a2.049,2.049,0,0,0-2.418,1.757l-.294,2.332a3.246,3.246,0,0,1-4.224,2.682l-9.526-3.1A9.842,9.842,0,0,1,256,292.075Z" transform="translate(-215.862 -216.509)"/>
      <path id="패스_13-4" data-name="패스 13" class="cls-3" d="M258.731,281.018,256,268.284l11.267,6.531a7.808,7.808,0,0,1,3.661,4.867l1.393,5.587a1.022,1.022,0,0,1-1.337,1.209l-1.074-.386a.95.95,0,0,0-1.271.924l.035,1.141a1.022,1.022,0,0,1-1.563.9L262.228,286A7.811,7.811,0,0,1,258.731,281.018Z" transform="translate(-215.862 -216.509)"/>
      <g id="그룹_2-4" data-name="그룹 2" class="cls-6" transform="translate(8.271 18.328)">
        <path id="패스_14-4" data-name="패스 14" d="M249.677,60.967a1.176,1.176,0,0,1-1.176-1.176V56.141a1.176,1.176,0,1,1,2.352,0v3.651A1.176,1.176,0,0,1,249.677,60.967Z" transform="translate(-217.81 -54.965)"/>
        <path id="패스_15-4" data-name="패스 15" d="M57.4,200.661a1.176,1.176,0,0,1-.364-.058l-3.472-1.128a1.176,1.176,0,1,1,.727-2.237l3.472,1.128a1.176,1.176,0,0,1-.363,2.294Z" transform="translate(-52.754 -174.882)"/>
        <path id="패스_16-4" data-name="패스 16" d="M128.7,413.763a1.176,1.176,0,0,1-.95-1.867l2.146-2.953a1.176,1.176,0,1,1,1.9,1.382l-2.146,2.953A1.174,1.174,0,0,1,128.7,413.763Z" transform="translate(-115.801 -353.033)"/>
        <path id="패스_17-4" data-name="패스 17" d="M359.114,413.763a1.174,1.174,0,0,1-.952-.485l-2.146-2.953a1.176,1.176,0,0,1,1.9-1.382l2.146,2.953a1.176,1.176,0,0,1-.95,1.867Z" transform="translate(-308.277 -353.034)"/>
        <path id="패스_18-4" data-name="패스 18" d="M423.277,200.66a1.176,1.176,0,0,1-.363-2.295l3.472-1.128a1.176,1.176,0,1,1,.727,2.237L423.64,200.6A1.165,1.165,0,0,1,423.277,200.66Z" transform="translate(-364.191 -174.881)"/>
      </g>
    </g>
    <g id="flower-5" data-name="flower" transform="translate(144.356 63.13) rotate(2)">
      <path id="패스_1-5" data-name="패스 1" class="cls-2" d="M156.35,28.559l11.343,15.612,11.343-15.612a7.984,7.984,0,0,0,0-9.385L174.26,12.6a2.633,2.633,0,0,0-4.051-.254l-1.3,1.39a1.662,1.662,0,0,1-2.424,0l-1.3-1.39a2.633,2.633,0,0,0-4.051.254l-4.776,6.573A7.983,7.983,0,0,0,156.35,28.559Z" transform="translate(-135.134)"/>
      <path id="패스_2-5" data-name="패스 2" class="cls-3" d="M218.621,125.168l4.28,9.658,4.28-9.658a6.334,6.334,0,0,0,.082-4.939l-1.75-4.331a.829.829,0,0,0-1.454-.156l-.521.766a.771.771,0,0,1-1.275,0l-.521-.766a.829.829,0,0,0-1.454.156l-1.75,4.331A6.332,6.332,0,0,0,218.621,125.168Z" transform="translate(-190.343 -90.655)"/>
      <path id="패스_3-5" data-name="패스 3" class="cls-2" d="M14.205,144.515l18.353-5.963L21.215,122.94a7.983,7.983,0,0,0-8.926-2.9L4.563,122.55a2.633,2.633,0,0,0-1.493,3.774l.919,1.67a1.662,1.662,0,0,1-.749,2.306l-1.725.811A2.633,2.633,0,0,0,.5,135.042l4.776,6.573A7.984,7.984,0,0,0,14.205,144.515Z" transform="translate(0 -94.38)"/>
      <g id="그룹_1-5" data-name="그룹 1" transform="translate(0 25.268)">
        <path id="패스_4-5" data-name="패스 4" class="cls-4" d="M14.205,144.515l18.353-5.963L21.215,122.94a7.983,7.983,0,0,0-8.926-2.9L4.563,122.55a2.633,2.633,0,0,0-1.493,3.774l.919,1.67a1.662,1.662,0,0,1-.749,2.306l-1.725.811A2.633,2.633,0,0,0,.5,135.042l4.776,6.573A7.984,7.984,0,0,0,14.205,144.515Z" transform="translate(0 -119.648)"/>
        <path id="패스_5-5" data-name="패스 5" class="cls-3" d="M114.378,209.837l10.508-1.086-7.863-7.055a6.334,6.334,0,0,0-4.672-1.6l-4.659.326a.829.829,0,0,0-.6,1.334l.567.732a.771.771,0,0,1-.394,1.212l-.889.259a.829.829,0,0,0-.3,1.431l3.578,3A6.333,6.333,0,0,0,114.378,209.837Z" transform="translate(-92.328 -189.848)"/>
      </g>
      <path id="패스_6-5" data-name="패스 6" class="cls-2" d="M92.188,287.581v-19.3l-18.353,5.963a7.983,7.983,0,0,0-5.516,7.593v8.125a2.633,2.633,0,0,0,3.128,2.586l1.872-.358a1.662,1.662,0,0,1,1.961,1.425l.238,1.891a2.633,2.633,0,0,0,3.426,2.175l7.727-2.511A7.983,7.983,0,0,0,92.188,287.581Z" transform="translate(-59.63 -224.113)"/>
      <path id="패스_7-5" data-name="패스 7" class="cls-5" d="M92.188,287.581v-19.3l-18.353,5.963a7.983,7.983,0,0,0-5.516,7.593v8.125a2.633,2.633,0,0,0,3.128,2.586l1.872-.358a1.662,1.662,0,0,1,1.961,1.425l.238,1.891a2.633,2.633,0,0,0,3.426,2.175l7.727-2.511A7.983,7.983,0,0,0,92.188,287.581Z" transform="translate(-59.63 -224.113)"/>
      <path id="패스_8-5" data-name="패스 8" class="cls-3" d="M162.756,278.613l2.214-10.329-9.139,5.3a6.334,6.334,0,0,0-2.969,3.948l-1.13,4.532a.829.829,0,0,0,1.084.981l.872-.313a.771.771,0,0,1,1.031.749l-.029.926a.829.829,0,0,0,1.268.728l3.961-2.475A6.336,6.336,0,0,0,162.756,278.613Z" transform="translate(-132.412 -224.113)"/>
      <path id="패스_9-5" data-name="패스 9" class="cls-2" d="M274.354,144.515,256,138.551l11.343-15.612a7.983,7.983,0,0,1,8.926-2.9L284,122.55a2.633,2.633,0,0,1,1.493,3.774l-.919,1.67a1.662,1.662,0,0,0,.749,2.306l1.725.811a2.633,2.633,0,0,1,1.01,3.931l-4.776,6.573A7.983,7.983,0,0,1,274.354,144.515Z" transform="translate(-223.443 -94.38)"/>
      <path id="패스_10-5" data-name="패스 10" class="cls-5" d="M274.354,144.515,256,138.551l11.343-15.612a7.983,7.983,0,0,1,8.926-2.9L284,122.55a2.633,2.633,0,0,1,1.493,3.774l-.919,1.67a1.662,1.662,0,0,0,.749,2.306l1.725.811a2.633,2.633,0,0,1,1.01,3.931l-4.776,6.573A7.983,7.983,0,0,1,274.354,144.515Z" transform="translate(-223.443 -94.38)"/>
      <path id="패스_11-5" data-name="패스 11" class="cls-3" d="M266.509,209.837,256,208.751l7.863-7.055a6.334,6.334,0,0,1,4.672-1.6l4.659.326a.829.829,0,0,1,.6,1.334l-.567.732a.771.771,0,0,0,.394,1.212l.889.259a.829.829,0,0,1,.3,1.431l-3.578,3A6.333,6.333,0,0,1,266.509,209.837Z" transform="translate(-223.443 -164.58)"/>
      <path id="패스_12-5" data-name="패스 12" class="cls-2" d="M256,287.581v-19.3l18.353,5.963a7.983,7.983,0,0,1,5.516,7.593v8.125a2.633,2.633,0,0,1-3.128,2.586l-1.872-.358a1.662,1.662,0,0,0-1.961,1.425l-.238,1.891a2.633,2.633,0,0,1-3.426,2.175l-7.727-2.511A7.983,7.983,0,0,1,256,287.581Z" transform="translate(-223.443 -224.113)"/>
      <path id="패스_13-5" data-name="패스 13" class="cls-3" d="M258.215,278.613,256,268.284l9.139,5.3a6.334,6.334,0,0,1,2.969,3.948l1.13,4.532a.829.829,0,0,1-1.084.981l-.872-.313a.771.771,0,0,0-1.031.749l.029.926a.829.829,0,0,1-1.268.728l-3.961-2.475A6.336,6.336,0,0,1,258.215,278.613Z" transform="translate(-223.443 -224.113)"/>
      <g id="그룹_2-5" data-name="그룹 2" class="cls-6" transform="translate(6.709 17.042)">
        <path id="패스_14-5" data-name="패스 14" d="M249.455,59.834a.954.954,0,0,1-.954-.954V55.919a.954.954,0,1,1,1.908,0V58.88A.954.954,0,0,1,249.455,59.834Z" transform="translate(-223.606 -54.965)"/>
        <path id="패스_15-5" data-name="패스 15" d="M56.524,200a.954.954,0,0,1-.295-.047l-2.816-.915A.954.954,0,1,1,54,197.227l2.816.915A.954.954,0,0,1,56.524,200Z" transform="translate(-52.754 -179.093)"/>
        <path id="패스_16-5" data-name="패스 16" d="M128.477,412.761a.954.954,0,0,1-.771-1.515l1.741-2.4a.954.954,0,1,1,1.543,1.121l-1.741,2.4A.953.953,0,0,1,128.477,412.761Z" transform="translate(-118.015 -363.5)"/>
        <path id="패스_17-5" data-name="패스 17" d="M358.486,412.762a.953.953,0,0,1-.772-.393l-1.741-2.4a.954.954,0,0,1,1.543-1.121l1.741,2.4a.954.954,0,0,1-.771,1.515Z" transform="translate(-317.251 -363.501)"/>
        <path id="패스_18-5" data-name="패스 18" d="M423.055,200a.954.954,0,0,1-.295-1.861l2.816-.915a.954.954,0,1,1,.589,1.814l-2.816.915A.945.945,0,0,1,423.055,200Z" transform="translate(-375.128 -179.092)"/>
      </g>
    </g>
    <g id="flower-6" data-name="flower" transform="translate(200.356 61.13) rotate(2)">
      <path id="패스_1-6" data-name="패스 1" class="cls-2" d="M156.35,28.559l11.343,15.612,11.343-15.612a7.984,7.984,0,0,0,0-9.385L174.26,12.6a2.633,2.633,0,0,0-4.051-.254l-1.3,1.39a1.662,1.662,0,0,1-2.424,0l-1.3-1.39a2.633,2.633,0,0,0-4.051.254l-4.776,6.573A7.983,7.983,0,0,0,156.35,28.559Z" transform="translate(-135.134)"/>
      <path id="패스_2-6" data-name="패스 2" class="cls-3" d="M218.621,125.168l4.28,9.658,4.28-9.658a6.334,6.334,0,0,0,.082-4.939l-1.75-4.331a.829.829,0,0,0-1.454-.156l-.521.766a.771.771,0,0,1-1.275,0l-.521-.766a.829.829,0,0,0-1.454.156l-1.75,4.331A6.332,6.332,0,0,0,218.621,125.168Z" transform="translate(-190.343 -90.655)"/>
      <path id="패스_3-6" data-name="패스 3" class="cls-2" d="M14.205,144.515l18.353-5.963L21.215,122.94a7.983,7.983,0,0,0-8.926-2.9L4.563,122.55a2.633,2.633,0,0,0-1.493,3.774l.919,1.67a1.662,1.662,0,0,1-.749,2.306l-1.725.811A2.633,2.633,0,0,0,.5,135.042l4.776,6.573A7.984,7.984,0,0,0,14.205,144.515Z" transform="translate(0 -94.38)"/>
      <g id="그룹_1-6" data-name="그룹 1" transform="translate(0 25.268)">
        <path id="패스_4-6" data-name="패스 4" class="cls-4" d="M14.205,144.515l18.353-5.963L21.215,122.94a7.983,7.983,0,0,0-8.926-2.9L4.563,122.55a2.633,2.633,0,0,0-1.493,3.774l.919,1.67a1.662,1.662,0,0,1-.749,2.306l-1.725.811A2.633,2.633,0,0,0,.5,135.042l4.776,6.573A7.984,7.984,0,0,0,14.205,144.515Z" transform="translate(0 -119.648)"/>
        <path id="패스_5-6" data-name="패스 5" class="cls-3" d="M114.378,209.837l10.508-1.086-7.863-7.055a6.334,6.334,0,0,0-4.672-1.6l-4.659.326a.829.829,0,0,0-.6,1.334l.567.732a.771.771,0,0,1-.394,1.212l-.889.259a.829.829,0,0,0-.3,1.431l3.578,3A6.333,6.333,0,0,0,114.378,209.837Z" transform="translate(-92.328 -189.848)"/>
      </g>
      <path id="패스_6-6" data-name="패스 6" class="cls-2" d="M92.188,287.581v-19.3l-18.353,5.963a7.983,7.983,0,0,0-5.516,7.593v8.125a2.633,2.633,0,0,0,3.128,2.586l1.872-.358a1.662,1.662,0,0,1,1.961,1.425l.238,1.891a2.633,2.633,0,0,0,3.426,2.175l7.727-2.511A7.983,7.983,0,0,0,92.188,287.581Z" transform="translate(-59.63 -224.113)"/>
      <path id="패스_7-6" data-name="패스 7" class="cls-5" d="M92.188,287.581v-19.3l-18.353,5.963a7.983,7.983,0,0,0-5.516,7.593v8.125a2.633,2.633,0,0,0,3.128,2.586l1.872-.358a1.662,1.662,0,0,1,1.961,1.425l.238,1.891a2.633,2.633,0,0,0,3.426,2.175l7.727-2.511A7.983,7.983,0,0,0,92.188,287.581Z" transform="translate(-59.63 -224.113)"/>
      <path id="패스_8-6" data-name="패스 8" class="cls-3" d="M162.756,278.613l2.214-10.329-9.139,5.3a6.334,6.334,0,0,0-2.969,3.948l-1.13,4.532a.829.829,0,0,0,1.084.981l.872-.313a.771.771,0,0,1,1.031.749l-.029.926a.829.829,0,0,0,1.268.728l3.961-2.475A6.336,6.336,0,0,0,162.756,278.613Z" transform="translate(-132.412 -224.113)"/>
      <path id="패스_9-6" data-name="패스 9" class="cls-2" d="M274.354,144.515,256,138.551l11.343-15.612a7.983,7.983,0,0,1,8.926-2.9L284,122.55a2.633,2.633,0,0,1,1.493,3.774l-.919,1.67a1.662,1.662,0,0,0,.749,2.306l1.725.811a2.633,2.633,0,0,1,1.01,3.931l-4.776,6.573A7.983,7.983,0,0,1,274.354,144.515Z" transform="translate(-223.443 -94.38)"/>
      <path id="패스_10-6" data-name="패스 10" class="cls-5" d="M274.354,144.515,256,138.551l11.343-15.612a7.983,7.983,0,0,1,8.926-2.9L284,122.55a2.633,2.633,0,0,1,1.493,3.774l-.919,1.67a1.662,1.662,0,0,0,.749,2.306l1.725.811a2.633,2.633,0,0,1,1.01,3.931l-4.776,6.573A7.983,7.983,0,0,1,274.354,144.515Z" transform="translate(-223.443 -94.38)"/>
      <path id="패스_11-6" data-name="패스 11" class="cls-3" d="M266.509,209.837,256,208.751l7.863-7.055a6.334,6.334,0,0,1,4.672-1.6l4.659.326a.829.829,0,0,1,.6,1.334l-.567.732a.771.771,0,0,0,.394,1.212l.889.259a.829.829,0,0,1,.3,1.431l-3.578,3A6.333,6.333,0,0,1,266.509,209.837Z" transform="translate(-223.443 -164.58)"/>
      <path id="패스_12-6" data-name="패스 12" class="cls-2" d="M256,287.581v-19.3l18.353,5.963a7.983,7.983,0,0,1,5.516,7.593v8.125a2.633,2.633,0,0,1-3.128,2.586l-1.872-.358a1.662,1.662,0,0,0-1.961,1.425l-.238,1.891a2.633,2.633,0,0,1-3.426,2.175l-7.727-2.511A7.983,7.983,0,0,1,256,287.581Z" transform="translate(-223.443 -224.113)"/>
      <path id="패스_13-6" data-name="패스 13" class="cls-3" d="M258.215,278.613,256,268.284l9.139,5.3a6.334,6.334,0,0,1,2.969,3.948l1.13,4.532a.829.829,0,0,1-1.084.981l-.872-.313a.771.771,0,0,0-1.031.749l.029.926a.829.829,0,0,1-1.268.728l-3.961-2.475A6.336,6.336,0,0,1,258.215,278.613Z" transform="translate(-223.443 -224.113)"/>
      <g id="그룹_2-6" data-name="그룹 2" class="cls-6" transform="translate(6.709 17.042)">
        <path id="패스_14-6" data-name="패스 14" d="M249.455,59.834a.954.954,0,0,1-.954-.954V55.919a.954.954,0,1,1,1.908,0V58.88A.954.954,0,0,1,249.455,59.834Z" transform="translate(-223.606 -54.965)"/>
        <path id="패스_15-6" data-name="패스 15" d="M56.524,200a.954.954,0,0,1-.295-.047l-2.816-.915A.954.954,0,1,1,54,197.227l2.816.915A.954.954,0,0,1,56.524,200Z" transform="translate(-52.754 -179.093)"/>
        <path id="패스_16-6" data-name="패스 16" d="M128.477,412.761a.954.954,0,0,1-.771-1.515l1.741-2.4a.954.954,0,1,1,1.543,1.121l-1.741,2.4A.953.953,0,0,1,128.477,412.761Z" transform="translate(-118.015 -363.5)"/>
        <path id="패스_17-6" data-name="패스 17" d="M358.486,412.762a.953.953,0,0,1-.772-.393l-1.741-2.4a.954.954,0,0,1,1.543-1.121l1.741,2.4a.954.954,0,0,1-.771,1.515Z" transform="translate(-317.251 -363.501)"/>
        <path id="패스_18-6" data-name="패스 18" d="M423.055,200a.954.954,0,0,1-.295-1.861l2.816-.915a.954.954,0,1,1,.589,1.814l-2.816.915A.945.945,0,0,1,423.055,200Z" transform="translate(-375.128 -179.092)"/>
      </g>
    </g>
    <g id="flower-7" data-name="flower" transform="translate(230.929 32.344) rotate(2)">
      <path id="패스_1-7" data-name="패스 1" class="cls-2" d="M156.05,25.21l9.114,12.544,9.114-12.544a6.415,6.415,0,0,0,0-7.54l-3.837-5.281a2.116,2.116,0,0,0-3.254-.2L166.137,13.3a1.336,1.336,0,0,1-1.948,0l-1.048-1.117a2.116,2.116,0,0,0-3.254.2l-3.837,5.281A6.415,6.415,0,0,0,156.05,25.21Z" transform="translate(-139.004)"/>
      <path id="패스_2-7" data-name="패스 2" class="cls-3" d="M218.514,123.245l3.439,7.76,3.439-7.76a5.089,5.089,0,0,0,.066-3.968l-1.406-3.479a.666.666,0,0,0-1.168-.125l-.419.615a.619.619,0,0,1-1.024,0l-.419-.615a.666.666,0,0,0-1.168.125l-1.406,3.48A5.088,5.088,0,0,0,218.514,123.245Z" transform="translate(-195.794 -93.251)"/>
      <path id="패스_3-7" data-name="패스 3" class="cls-2" d="M11.413,139.628l14.746-4.791-9.114-12.544a6.414,6.414,0,0,0-7.171-2.33L3.666,121.98a2.116,2.116,0,0,0-1.2,3.032l.738,1.342a1.336,1.336,0,0,1-.6,1.853l-1.386.652A2.116,2.116,0,0,0,.4,132.016L4.242,137.3A6.415,6.415,0,0,0,11.413,139.628Z" transform="translate(0 -97.083)"/>
      <g id="그룹_1-7" data-name="그룹 1" transform="translate(0 22.565)">
        <path id="패스_4-7" data-name="패스 4" class="cls-4" d="M11.413,139.628l14.746-4.791-9.114-12.544a6.414,6.414,0,0,0-7.171-2.33L3.666,121.98a2.116,2.116,0,0,0-1.2,3.032l.738,1.342a1.336,1.336,0,0,1-.6,1.853l-1.386.652A2.116,2.116,0,0,0,.4,132.016L4.242,137.3A6.415,6.415,0,0,0,11.413,139.628Z" transform="translate(0 -119.648)"/>
        <path id="패스_5-7" data-name="패스 5" class="cls-3" d="M112.689,207.919l8.443-.873-6.318-5.668a5.089,5.089,0,0,0-3.754-1.289l-3.744.262a.666.666,0,0,0-.48,1.072l.456.588a.619.619,0,0,1-.316.974l-.714.208a.666.666,0,0,0-.242,1.149l2.875,2.412A5.088,5.088,0,0,0,112.689,207.919Z" transform="translate(-94.972 -191.858)"/>
      </g>
      <path id="패스_6-7" data-name="패스 6" class="cls-2" d="M87.5,283.789v-15.5l-14.746,4.791a6.414,6.414,0,0,0-4.432,6.1V285.7a2.116,2.116,0,0,0,2.513,2.078l1.5-.288a1.336,1.336,0,0,1,1.576,1.145l.191,1.52a2.116,2.116,0,0,0,2.753,1.748l6.209-2.017A6.414,6.414,0,0,0,87.5,283.789Z" transform="translate(-61.338 -230.53)"/>
      <path id="패스_7-7" data-name="패스 7" class="cls-5" d="M87.5,283.789v-15.5l-14.746,4.791a6.414,6.414,0,0,0-4.432,6.1V285.7a2.116,2.116,0,0,0,2.513,2.078l1.5-.288a1.336,1.336,0,0,1,1.576,1.145l.191,1.52a2.116,2.116,0,0,0,2.753,1.748l6.209-2.017A6.414,6.414,0,0,0,87.5,283.789Z" transform="translate(-61.338 -230.53)"/>
      <path id="패스_8-7" data-name="패스 8" class="cls-3" d="M160.584,276.583l1.779-8.3-7.343,4.257a5.089,5.089,0,0,0-2.386,3.172l-.908,3.641a.666.666,0,0,0,.871.788l.7-.252a.619.619,0,0,1,.829.6l-.023.744a.666.666,0,0,0,1.018.585l3.183-1.989A5.091,5.091,0,0,0,160.584,276.583Z" transform="translate(-136.204 -230.53)"/>
      <path id="패스_9-7" data-name="패스 9" class="cls-2" d="M270.747,139.628,256,134.836l9.114-12.544a6.414,6.414,0,0,1,7.171-2.33l6.208,2.017a2.116,2.116,0,0,1,1.2,3.032l-.738,1.342a1.335,1.335,0,0,0,.6,1.853l1.386.652a2.116,2.116,0,0,1,.812,3.158l-3.837,5.281A6.414,6.414,0,0,1,270.747,139.628Z" transform="translate(-229.842 -97.083)"/>
      <path id="패스_10-7" data-name="패스 10" class="cls-5" d="M270.747,139.628,256,134.836l9.114-12.544a6.414,6.414,0,0,1,7.171-2.33l6.208,2.017a2.116,2.116,0,0,1,1.2,3.032l-.738,1.342a1.335,1.335,0,0,0,.6,1.853l1.386.652a2.116,2.116,0,0,1,.812,3.158l-3.837,5.281A6.414,6.414,0,0,1,270.747,139.628Z" transform="translate(-229.842 -97.083)"/>
      <path id="패스_11-7" data-name="패스 11" class="cls-3" d="M264.444,207.919,256,207.046l6.318-5.668a5.089,5.089,0,0,1,3.754-1.289l3.744.262a.666.666,0,0,1,.48,1.072l-.456.588a.619.619,0,0,0,.316.974l.714.208a.666.666,0,0,1,.242,1.149l-2.875,2.412A5.088,5.088,0,0,1,264.444,207.919Z" transform="translate(-229.842 -169.293)"/>
      <path id="패스_12-7" data-name="패스 12" class="cls-2" d="M256,283.789v-15.5l14.746,4.791a6.414,6.414,0,0,1,4.432,6.1V285.7a2.116,2.116,0,0,1-2.513,2.078l-1.5-.288a1.336,1.336,0,0,0-1.576,1.145l-.191,1.52a2.116,2.116,0,0,1-2.753,1.748l-6.208-2.017A6.414,6.414,0,0,1,256,283.789Z" transform="translate(-229.842 -230.53)"/>
      <path id="패스_13-7" data-name="패스 13" class="cls-3" d="M257.78,276.583l-1.779-8.3,7.343,4.257a5.089,5.089,0,0,1,2.386,3.172l.908,3.641a.666.666,0,0,1-.871.788l-.7-.252a.619.619,0,0,0-.829.6l.023.744a.666.666,0,0,1-1.018.585l-3.183-1.989A5.091,5.091,0,0,1,257.78,276.583Z" transform="translate(-229.842 -230.53)"/>
      <g id="그룹_2-7" data-name="그룹 2" class="cls-6" transform="translate(5.391 15.956)">
        <path id="패스_14-7" data-name="패스 14" d="M249.267,58.877a.766.766,0,0,1-.766-.766V55.731a.766.766,0,1,1,1.533,0v2.379A.766.766,0,0,1,249.267,58.877Z" transform="translate(-228.499 -54.965)"/>
        <path id="패스_15-7" data-name="패스 15" d="M55.783,199.448a.766.766,0,0,1-.237-.038l-2.263-.735a.766.766,0,0,1,.474-1.458l2.263.735a.766.766,0,0,1-.237,1.5Z" transform="translate(-52.754 -182.648)"/>
        <path id="패스_16-7" data-name="패스 16" d="M128.29,411.915a.766.766,0,0,1-.619-1.217l1.4-1.925a.766.766,0,1,1,1.24.9l-1.4,1.925A.765.765,0,0,1,128.29,411.915Z" transform="translate(-119.884 -372.336)"/>
        <path id="패스_17-7" data-name="패스 17" d="M357.957,411.916a.765.765,0,0,1-.621-.316l-1.4-1.925a.766.766,0,0,1,1.24-.9l1.4,1.925a.766.766,0,0,1-.619,1.217Z" transform="translate(-324.825 -372.337)"/>
        <path id="패스_18-7" data-name="패스 18" d="M422.867,199.448a.767.767,0,0,1-.237-1.5l2.263-.735a.766.766,0,0,1,.474,1.458l-2.263.735A.76.76,0,0,1,422.867,199.448Z" transform="translate(-384.359 -182.647)"/>
      </g>
    </g>
    <g id="flower-8" data-name="flower" transform="matrix(0.927, 0.375, -0.375, 0.927, 251.181, 70.147)">
      <path id="패스_1-8" data-name="패스 1" class="cls-2" d="M156.35,28.559l11.343,15.612,11.343-15.612a7.984,7.984,0,0,0,0-9.385L174.26,12.6a2.633,2.633,0,0,0-4.051-.254l-1.3,1.39a1.662,1.662,0,0,1-2.424,0l-1.3-1.39a2.633,2.633,0,0,0-4.051.254l-4.776,6.573A7.983,7.983,0,0,0,156.35,28.559Z" transform="translate(-135.134)"/>
      <path id="패스_2-8" data-name="패스 2" class="cls-3" d="M218.621,125.168l4.28,9.658,4.28-9.658a6.334,6.334,0,0,0,.082-4.939l-1.75-4.331a.829.829,0,0,0-1.454-.156l-.521.766a.771.771,0,0,1-1.275,0l-.521-.766a.829.829,0,0,0-1.454.156l-1.75,4.331A6.332,6.332,0,0,0,218.621,125.168Z" transform="translate(-190.343 -90.655)"/>
      <path id="패스_3-8" data-name="패스 3" class="cls-2" d="M14.205,144.515l18.353-5.963L21.215,122.94a7.983,7.983,0,0,0-8.926-2.9L4.563,122.55a2.633,2.633,0,0,0-1.493,3.774l.919,1.67a1.662,1.662,0,0,1-.749,2.306l-1.725.811A2.633,2.633,0,0,0,.5,135.042l4.776,6.573A7.984,7.984,0,0,0,14.205,144.515Z" transform="translate(0 -94.38)"/>
      <g id="그룹_1-8" data-name="그룹 1" transform="translate(0 25.268)">
        <path id="패스_4-8" data-name="패스 4" class="cls-4" d="M14.205,144.515l18.353-5.963L21.215,122.94a7.983,7.983,0,0,0-8.926-2.9L4.563,122.55a2.633,2.633,0,0,0-1.493,3.774l.919,1.67a1.662,1.662,0,0,1-.749,2.306l-1.725.811A2.633,2.633,0,0,0,.5,135.042l4.776,6.573A7.984,7.984,0,0,0,14.205,144.515Z" transform="translate(0 -119.648)"/>
        <path id="패스_5-8" data-name="패스 5" class="cls-3" d="M114.378,209.837l10.508-1.086-7.863-7.055a6.334,6.334,0,0,0-4.672-1.6l-4.659.326a.829.829,0,0,0-.6,1.334l.567.732a.771.771,0,0,1-.394,1.212l-.889.259a.829.829,0,0,0-.3,1.431l3.578,3A6.333,6.333,0,0,0,114.378,209.837Z" transform="translate(-92.328 -189.848)"/>
      </g>
      <path id="패스_6-8" data-name="패스 6" class="cls-2" d="M92.188,287.581v-19.3l-18.353,5.963a7.983,7.983,0,0,0-5.516,7.593v8.125a2.633,2.633,0,0,0,3.128,2.586l1.872-.358a1.662,1.662,0,0,1,1.961,1.425l.238,1.891a2.633,2.633,0,0,0,3.426,2.175l7.727-2.511A7.983,7.983,0,0,0,92.188,287.581Z" transform="translate(-59.63 -224.113)"/>
      <path id="패스_7-8" data-name="패스 7" class="cls-5" d="M92.188,287.581v-19.3l-18.353,5.963a7.983,7.983,0,0,0-5.516,7.593v8.125a2.633,2.633,0,0,0,3.128,2.586l1.872-.358a1.662,1.662,0,0,1,1.961,1.425l.238,1.891a2.633,2.633,0,0,0,3.426,2.175l7.727-2.511A7.983,7.983,0,0,0,92.188,287.581Z" transform="translate(-59.63 -224.113)"/>
      <path id="패스_8-8" data-name="패스 8" class="cls-3" d="M162.756,278.613l2.214-10.329-9.139,5.3a6.334,6.334,0,0,0-2.969,3.948l-1.13,4.532a.829.829,0,0,0,1.084.981l.872-.313a.771.771,0,0,1,1.031.749l-.029.926a.829.829,0,0,0,1.268.728l3.961-2.475A6.336,6.336,0,0,0,162.756,278.613Z" transform="translate(-132.412 -224.113)"/>
      <path id="패스_9-8" data-name="패스 9" class="cls-2" d="M274.354,144.515,256,138.551l11.343-15.612a7.983,7.983,0,0,1,8.926-2.9L284,122.55a2.633,2.633,0,0,1,1.493,3.774l-.919,1.67a1.662,1.662,0,0,0,.749,2.306l1.725.811a2.633,2.633,0,0,1,1.01,3.931l-4.776,6.573A7.983,7.983,0,0,1,274.354,144.515Z" transform="translate(-223.443 -94.38)"/>
      <path id="패스_10-8" data-name="패스 10" class="cls-5" d="M274.354,144.515,256,138.551l11.343-15.612a7.983,7.983,0,0,1,8.926-2.9L284,122.55a2.633,2.633,0,0,1,1.493,3.774l-.919,1.67a1.662,1.662,0,0,0,.749,2.306l1.725.811a2.633,2.633,0,0,1,1.01,3.931l-4.776,6.573A7.983,7.983,0,0,1,274.354,144.515Z" transform="translate(-223.443 -94.38)"/>
      <path id="패스_11-8" data-name="패스 11" class="cls-3" d="M266.509,209.837,256,208.751l7.863-7.055a6.334,6.334,0,0,1,4.672-1.6l4.659.326a.829.829,0,0,1,.6,1.334l-.567.732a.771.771,0,0,0,.394,1.212l.889.259a.829.829,0,0,1,.3,1.431l-3.578,3A6.333,6.333,0,0,1,266.509,209.837Z" transform="translate(-223.443 -164.58)"/>
      <path id="패스_12-8" data-name="패스 12" class="cls-2" d="M256,287.581v-19.3l18.353,5.963a7.983,7.983,0,0,1,5.516,7.593v8.125a2.633,2.633,0,0,1-3.128,2.586l-1.872-.358a1.662,1.662,0,0,0-1.961,1.425l-.238,1.891a2.633,2.633,0,0,1-3.426,2.175l-7.727-2.511A7.983,7.983,0,0,1,256,287.581Z" transform="translate(-223.443 -224.113)"/>
      <path id="패스_13-8" data-name="패스 13" class="cls-3" d="M258.215,278.613,256,268.284l9.139,5.3a6.334,6.334,0,0,1,2.969,3.948l1.13,4.532a.829.829,0,0,1-1.084.981l-.872-.313a.771.771,0,0,0-1.031.749l.029.926a.829.829,0,0,1-1.268.728l-3.961-2.475A6.336,6.336,0,0,1,258.215,278.613Z" transform="translate(-223.443 -224.113)"/>
      <g id="그룹_2-8" data-name="그룹 2" class="cls-6" transform="translate(6.709 17.042)">
        <path id="패스_14-8" data-name="패스 14" d="M249.455,59.834a.954.954,0,0,1-.954-.954V55.919a.954.954,0,1,1,1.908,0V58.88A.954.954,0,0,1,249.455,59.834Z" transform="translate(-223.606 -54.965)"/>
        <path id="패스_15-8" data-name="패스 15" d="M56.524,200a.954.954,0,0,1-.295-.047l-2.816-.915A.954.954,0,1,1,54,197.227l2.816.915A.954.954,0,0,1,56.524,200Z" transform="translate(-52.754 -179.093)"/>
        <path id="패스_16-8" data-name="패스 16" d="M128.477,412.761a.954.954,0,0,1-.771-1.515l1.741-2.4a.954.954,0,1,1,1.543,1.121l-1.741,2.4A.953.953,0,0,1,128.477,412.761Z" transform="translate(-118.015 -363.5)"/>
        <path id="패스_17-8" data-name="패스 17" d="M358.486,412.762a.953.953,0,0,1-.772-.393l-1.741-2.4a.954.954,0,0,1,1.543-1.121l1.741,2.4a.954.954,0,0,1-.771,1.515Z" transform="translate(-317.251 -363.501)"/>
        <path id="패스_18-8" data-name="패스 18" d="M423.055,200a.954.954,0,0,1-.295-1.861l2.816-.915a.954.954,0,1,1,.589,1.814l-2.816.915A.945.945,0,0,1,423.055,200Z" transform="translate(-375.128 -179.092)"/>
      </g>
    </g>
    <g id="flower-9" data-name="flower" transform="translate(266.096 17.124) rotate(8)">
      <path id="패스_1-9" data-name="패스 1" class="cls-2" d="M156.35,28.559l11.343,15.612,11.343-15.612a7.984,7.984,0,0,0,0-9.385L174.26,12.6a2.633,2.633,0,0,0-4.051-.254l-1.3,1.39a1.662,1.662,0,0,1-2.424,0l-1.3-1.39a2.633,2.633,0,0,0-4.051.254l-4.776,6.573A7.983,7.983,0,0,0,156.35,28.559Z" transform="translate(-135.134)"/>
      <path id="패스_2-9" data-name="패스 2" class="cls-3" d="M218.621,125.168l4.28,9.658,4.28-9.658a6.334,6.334,0,0,0,.082-4.939l-1.75-4.331a.829.829,0,0,0-1.454-.156l-.521.766a.771.771,0,0,1-1.275,0l-.521-.766a.829.829,0,0,0-1.454.156l-1.75,4.331A6.332,6.332,0,0,0,218.621,125.168Z" transform="translate(-190.343 -90.655)"/>
      <path id="패스_3-9" data-name="패스 3" class="cls-2" d="M14.205,144.515l18.353-5.963L21.215,122.94a7.983,7.983,0,0,0-8.926-2.9L4.563,122.55a2.633,2.633,0,0,0-1.493,3.774l.919,1.67a1.662,1.662,0,0,1-.749,2.306l-1.725.811A2.633,2.633,0,0,0,.5,135.042l4.776,6.573A7.984,7.984,0,0,0,14.205,144.515Z" transform="translate(0 -94.38)"/>
      <g id="그룹_1-9" data-name="그룹 1" transform="translate(0 25.268)">
        <path id="패스_4-9" data-name="패스 4" class="cls-4" d="M14.205,144.515l18.353-5.963L21.215,122.94a7.983,7.983,0,0,0-8.926-2.9L4.563,122.55a2.633,2.633,0,0,0-1.493,3.774l.919,1.67a1.662,1.662,0,0,1-.749,2.306l-1.725.811A2.633,2.633,0,0,0,.5,135.042l4.776,6.573A7.984,7.984,0,0,0,14.205,144.515Z" transform="translate(0 -119.648)"/>
        <path id="패스_5-9" data-name="패스 5" class="cls-3" d="M114.378,209.837l10.508-1.086-7.863-7.055a6.334,6.334,0,0,0-4.672-1.6l-4.659.326a.829.829,0,0,0-.6,1.334l.567.732a.771.771,0,0,1-.394,1.212l-.889.259a.829.829,0,0,0-.3,1.431l3.578,3A6.333,6.333,0,0,0,114.378,209.837Z" transform="translate(-92.328 -189.848)"/>
      </g>
      <path id="패스_6-9" data-name="패스 6" class="cls-2" d="M92.188,287.581v-19.3l-18.353,5.963a7.983,7.983,0,0,0-5.516,7.593v8.125a2.633,2.633,0,0,0,3.128,2.586l1.872-.358a1.662,1.662,0,0,1,1.961,1.425l.238,1.891a2.633,2.633,0,0,0,3.426,2.175l7.727-2.511A7.983,7.983,0,0,0,92.188,287.581Z" transform="translate(-59.63 -224.113)"/>
      <path id="패스_7-9" data-name="패스 7" class="cls-5" d="M92.188,287.581v-19.3l-18.353,5.963a7.983,7.983,0,0,0-5.516,7.593v8.125a2.633,2.633,0,0,0,3.128,2.586l1.872-.358a1.662,1.662,0,0,1,1.961,1.425l.238,1.891a2.633,2.633,0,0,0,3.426,2.175l7.727-2.511A7.983,7.983,0,0,0,92.188,287.581Z" transform="translate(-59.63 -224.113)"/>
      <path id="패스_8-9" data-name="패스 8" class="cls-3" d="M162.756,278.613l2.214-10.329-9.139,5.3a6.334,6.334,0,0,0-2.969,3.948l-1.13,4.532a.829.829,0,0,0,1.084.981l.872-.313a.771.771,0,0,1,1.031.749l-.029.926a.829.829,0,0,0,1.268.728l3.961-2.475A6.336,6.336,0,0,0,162.756,278.613Z" transform="translate(-132.412 -224.113)"/>
      <path id="패스_9-9" data-name="패스 9" class="cls-2" d="M274.354,144.515,256,138.551l11.343-15.612a7.983,7.983,0,0,1,8.926-2.9L284,122.55a2.633,2.633,0,0,1,1.493,3.774l-.919,1.67a1.662,1.662,0,0,0,.749,2.306l1.725.811a2.633,2.633,0,0,1,1.01,3.931l-4.776,6.573A7.983,7.983,0,0,1,274.354,144.515Z" transform="translate(-223.443 -94.38)"/>
      <path id="패스_10-9" data-name="패스 10" class="cls-5" d="M274.354,144.515,256,138.551l11.343-15.612a7.983,7.983,0,0,1,8.926-2.9L284,122.55a2.633,2.633,0,0,1,1.493,3.774l-.919,1.67a1.662,1.662,0,0,0,.749,2.306l1.725.811a2.633,2.633,0,0,1,1.01,3.931l-4.776,6.573A7.983,7.983,0,0,1,274.354,144.515Z" transform="translate(-223.443 -94.38)"/>
      <path id="패스_11-9" data-name="패스 11" class="cls-3" d="M266.509,209.837,256,208.751l7.863-7.055a6.334,6.334,0,0,1,4.672-1.6l4.659.326a.829.829,0,0,1,.6,1.334l-.567.732a.771.771,0,0,0,.394,1.212l.889.259a.829.829,0,0,1,.3,1.431l-3.578,3A6.333,6.333,0,0,1,266.509,209.837Z" transform="translate(-223.443 -164.58)"/>
      <path id="패스_12-9" data-name="패스 12" class="cls-2" d="M256,287.581v-19.3l18.353,5.963a7.983,7.983,0,0,1,5.516,7.593v8.125a2.633,2.633,0,0,1-3.128,2.586l-1.872-.358a1.662,1.662,0,0,0-1.961,1.425l-.238,1.891a2.633,2.633,0,0,1-3.426,2.175l-7.727-2.511A7.983,7.983,0,0,1,256,287.581Z" transform="translate(-223.443 -224.113)"/>
      <path id="패스_13-9" data-name="패스 13" class="cls-3" d="M258.215,278.613,256,268.284l9.139,5.3a6.334,6.334,0,0,1,2.969,3.948l1.13,4.532a.829.829,0,0,1-1.084.981l-.872-.313a.771.771,0,0,0-1.031.749l.029.926a.829.829,0,0,1-1.268.728l-3.961-2.475A6.336,6.336,0,0,1,258.215,278.613Z" transform="translate(-223.443 -224.113)"/>
      <g id="그룹_2-9" data-name="그룹 2" class="cls-6" transform="translate(6.709 17.042)">
        <path id="패스_14-9" data-name="패스 14" d="M249.455,59.834a.954.954,0,0,1-.954-.954V55.919a.954.954,0,1,1,1.908,0V58.88A.954.954,0,0,1,249.455,59.834Z" transform="translate(-223.606 -54.965)"/>
        <path id="패스_15-9" data-name="패스 15" d="M56.524,200a.954.954,0,0,1-.295-.047l-2.816-.915A.954.954,0,1,1,54,197.227l2.816.915A.954.954,0,0,1,56.524,200Z" transform="translate(-52.754 -179.093)"/>
        <path id="패스_16-9" data-name="패스 16" d="M128.477,412.761a.954.954,0,0,1-.771-1.515l1.741-2.4a.954.954,0,1,1,1.543,1.121l-1.741,2.4A.953.953,0,0,1,128.477,412.761Z" transform="translate(-118.015 -363.5)"/>
        <path id="패스_17-9" data-name="패스 17" d="M358.486,412.762a.953.953,0,0,1-.772-.393l-1.741-2.4a.954.954,0,0,1,1.543-1.121l1.741,2.4a.954.954,0,0,1-.771,1.515Z" transform="translate(-317.251 -363.501)"/>
        <path id="패스_18-9" data-name="패스 18" d="M423.055,200a.954.954,0,0,1-.295-1.861l2.816-.915a.954.954,0,1,1,.589,1.814l-2.816.915A.945.945,0,0,1,423.055,200Z" transform="translate(-375.128 -179.092)"/>
      </g>
    </g>
    <g id="flower-10" data-name="flower" transform="translate(298.906 41.334)">
      <path id="패스_1-10" data-name="패스 1" class="cls-2" d="M156.256,27.513,166.9,42.166l10.646-14.653a7.493,7.493,0,0,0,0-8.809l-4.482-6.169a2.471,2.471,0,0,0-3.8-.238l-1.224,1.3a1.56,1.56,0,0,1-2.275,0l-1.224-1.3a2.471,2.471,0,0,0-3.8.238L156.256,18.7A7.493,7.493,0,0,0,156.256,27.513Z" transform="translate(-136.344)"/>
      <path id="패스_2-10" data-name="패스 2" class="cls-3" d="M218.588,124.567l4.017,9.065,4.017-9.065a5.945,5.945,0,0,0,.077-4.636l-1.642-4.065a.778.778,0,0,0-1.364-.146l-.489.719a.724.724,0,0,1-1.2,0l-.489-.719a.778.778,0,0,0-1.364.146l-1.642,4.065A5.943,5.943,0,0,0,218.588,124.567Z" transform="translate(-192.046 -91.466)"/>
      <path id="패스_3-10" data-name="패스 3" class="cls-2" d="M13.333,142.988l17.226-5.6L19.912,122.737a7.493,7.493,0,0,0-8.377-2.722l-7.253,2.356a2.471,2.471,0,0,0-1.4,3.542l.863,1.568a1.56,1.56,0,0,1-.7,2.164l-1.619.761A2.471,2.471,0,0,0,.473,134.1l4.482,6.169A7.493,7.493,0,0,0,13.333,142.988Z" transform="translate(0 -95.225)"/>
      <g id="그룹_1-10" data-name="그룹 1" transform="translate(0 24.424)">
        <path id="패스_4-10" data-name="패스 4" class="cls-4" d="M13.333,142.988l17.226-5.6L19.912,122.737a7.493,7.493,0,0,0-8.377-2.722l-7.253,2.356a2.471,2.471,0,0,0-1.4,3.542l.863,1.568a1.56,1.56,0,0,1-.7,2.164l-1.619.761A2.471,2.471,0,0,0,.473,134.1l4.482,6.169A7.493,7.493,0,0,0,13.333,142.988Z" transform="translate(0 -119.648)"/>
        <path id="패스_5-10" data-name="패스 5" class="cls-3" d="M113.85,209.238l9.863-1.019-7.38-6.622a5.945,5.945,0,0,0-4.385-1.506l-4.373.306a.778.778,0,0,0-.561,1.252l.532.687a.724.724,0,0,1-.37,1.138l-.834.243a.778.778,0,0,0-.283,1.343l3.358,2.818A5.944,5.944,0,0,0,113.85,209.238Z" transform="translate(-93.154 -190.476)"/>
      </g>
      <path id="패스_6-10" data-name="패스 6" class="cls-2" d="M90.722,286.4V268.284l-17.226,5.6a7.493,7.493,0,0,0-5.177,7.126v7.626a2.471,2.471,0,0,0,2.935,2.427l1.757-.336a1.56,1.56,0,0,1,1.841,1.337l.224,1.775a2.471,2.471,0,0,0,3.216,2.042l7.253-2.357A7.493,7.493,0,0,0,90.722,286.4Z" transform="translate(-60.164 -226.118)"/>
      <path id="패스_7-10" data-name="패스 7" class="cls-5" d="M90.722,286.4V268.284l-17.226,5.6a7.493,7.493,0,0,0-5.177,7.126v7.626a2.471,2.471,0,0,0,2.935,2.427l1.757-.336a1.56,1.56,0,0,1,1.841,1.337l.224,1.775a2.471,2.471,0,0,0,3.216,2.042l7.253-2.357A7.493,7.493,0,0,0,90.722,286.4Z" transform="translate(-60.164 -226.118)"/>
      <path id="패스_8-10" data-name="패스 8" class="cls-3" d="M162.077,277.979l2.078-9.695-8.578,4.973a5.945,5.945,0,0,0-2.787,3.705l-1.06,4.254a.778.778,0,0,0,1.018.92l.818-.294a.724.724,0,0,1,.968.7l-.027.869a.778.778,0,0,0,1.19.684l3.718-2.323A5.947,5.947,0,0,0,162.077,277.979Z" transform="translate(-133.597 -226.118)"/>
      <path id="패스_9-10" data-name="패스 9" class="cls-2" d="M273.227,142.988,256,137.391l10.646-14.653a7.493,7.493,0,0,1,8.377-2.722l7.253,2.356a2.471,2.471,0,0,1,1.4,3.542l-.863,1.568a1.56,1.56,0,0,0,.7,2.164l1.619.761a2.471,2.471,0,0,1,.948,3.689l-4.482,6.169A7.493,7.493,0,0,1,273.227,142.988Z" transform="translate(-225.442 -95.225)"/>
      <path id="패스_10-10" data-name="패스 10" class="cls-5" d="M273.227,142.988,256,137.391l10.646-14.653a7.493,7.493,0,0,1,8.377-2.722l7.253,2.356a2.471,2.471,0,0,1,1.4,3.542l-.863,1.568a1.56,1.56,0,0,0,.7,2.164l1.619.761a2.471,2.471,0,0,1,.948,3.689l-4.482,6.169A7.493,7.493,0,0,1,273.227,142.988Z" transform="translate(-225.442 -95.225)"/>
      <path id="패스_11-10" data-name="패스 11" class="cls-3" d="M265.863,209.238,256,208.218l7.38-6.622a5.945,5.945,0,0,1,4.385-1.506l4.373.306a.778.778,0,0,1,.561,1.252l-.532.687a.724.724,0,0,0,.37,1.138l.834.243a.778.778,0,0,1,.283,1.343l-3.358,2.818A5.944,5.944,0,0,1,265.863,209.238Z" transform="translate(-225.442 -166.053)"/>
      <path id="패스_12-10" data-name="패스 12" class="cls-2" d="M256,286.4V268.284l17.226,5.6a7.493,7.493,0,0,1,5.177,7.126v7.626a2.471,2.471,0,0,1-2.935,2.427l-1.757-.336a1.56,1.56,0,0,0-1.841,1.337l-.223,1.775a2.471,2.471,0,0,1-3.216,2.042l-7.253-2.357A7.493,7.493,0,0,1,256,286.4Z" transform="translate(-225.443 -226.118)"/>
      <path id="패스_13-10" data-name="패스 13" class="cls-3" d="M258.079,277.979,256,268.284l8.578,4.973a5.944,5.944,0,0,1,2.787,3.705l1.061,4.254a.778.778,0,0,1-1.018.92l-.818-.294a.724.724,0,0,0-.968.7l.027.869a.778.778,0,0,1-1.19.684l-3.718-2.323A5.947,5.947,0,0,1,258.079,277.979Z" transform="translate(-225.442 -226.118)"/>
      <g id="그룹_2-10" data-name="그룹 2" class="cls-6" transform="translate(6.297 16.702)">
        <path id="패스_14-10" data-name="패스 14" d="M249.4,59.535a.9.9,0,0,1-.9-.9V55.86a.9.9,0,0,1,1.791,0v2.779A.9.9,0,0,1,249.4,59.535Z" transform="translate(-225.135 -54.965)"/>
        <path id="패스_15-10" data-name="패스 15" d="M56.292,199.83a.9.9,0,0,1-.277-.044l-2.643-.859a.9.9,0,1,1,.553-1.7l2.643.859a.9.9,0,0,1-.276,1.747Z" transform="translate(-52.754 -180.204)"/>
        <path id="패스_16-10" data-name="패스 16" d="M128.418,412.5a.9.9,0,0,1-.723-1.422l1.634-2.248a.9.9,0,0,1,1.449,1.052l-1.634,2.248A.894.894,0,0,1,128.418,412.5Z" transform="translate(-118.599 -366.262)"/>
        <path id="패스_17-10" data-name="패스 17" d="M358.321,412.5a.894.894,0,0,1-.725-.369l-1.634-2.248a.9.9,0,0,1,1.449-1.052l1.634,2.248a.9.9,0,0,1-.723,1.422Z" transform="translate(-319.618 -366.262)"/>
        <path id="패스_18-10" data-name="패스 18" d="M423,199.829a.9.9,0,0,1-.276-1.747l2.643-.859a.9.9,0,1,1,.553,1.7l-2.643.859A.887.887,0,0,1,423,199.829Z" transform="translate(-378.013 -180.203)"/>
      </g>
    </g>
    <g id="flower-11" data-name="flower" transform="translate(255.906 48.125)">
      <path id="패스_1-11" data-name="패스 1" class="cls-2" d="M156.751,33.051l14.332,19.727,14.332-19.727a10.088,10.088,0,0,0,0-11.858l-6.034-8.305a3.327,3.327,0,0,0-5.118-.321l-1.648,1.757a2.1,2.1,0,0,1-3.063,0L167.9,12.567a3.327,3.327,0,0,0-5.118.321l-6.034,8.305A10.088,10.088,0,0,0,156.751,33.051Z" transform="translate(-129.945 0)"/>
      <path id="패스_2-11" data-name="패스 2" class="cls-3" d="M218.764,127.748l5.408,12.2,5.408-12.2a8,8,0,0,0,.1-6.241l-2.211-5.472a1.047,1.047,0,0,0-1.837-.2l-.658.967a.974.974,0,0,1-1.611,0l-.658-.967a1.047,1.047,0,0,0-1.837.2l-2.211,5.472A8,8,0,0,0,218.764,127.748Z" transform="translate(-183.033 -87.173)"/>
      <path id="패스_3-11" data-name="패스 3" class="cls-2" d="M17.949,151.068l23.19-7.535L26.807,123.807a10.087,10.087,0,0,0-11.278-3.664l-9.764,3.172a3.327,3.327,0,0,0-1.887,4.768l1.161,2.11a2.1,2.1,0,0,1-.947,2.913l-2.18,1.025A3.327,3.327,0,0,0,.636,139.1L6.671,147.4A10.088,10.088,0,0,0,17.949,151.068Z" transform="translate(0 -90.756)"/>
      <g id="그룹_1-11" data-name="그룹 1" transform="translate(0 28.893)">
        <path id="패스_4-11" data-name="패스 4" class="cls-4" d="M17.949,151.068l23.19-7.535L26.807,123.807a10.087,10.087,0,0,0-11.278-3.664l-9.764,3.172a3.327,3.327,0,0,0-1.887,4.768l1.161,2.11a2.1,2.1,0,0,1-.947,2.913l-2.18,1.025A3.327,3.327,0,0,0,.636,139.1L6.671,147.4A10.088,10.088,0,0,0,17.949,151.068Z" transform="translate(0 -119.648)"/>
        <path id="패스_5-11" data-name="패스 5" class="cls-3" d="M116.644,212.41l13.277-1.372-9.935-8.914a8,8,0,0,0-5.9-2.027l-5.887.412a1.047,1.047,0,0,0-.755,1.686l.717.925a.974.974,0,0,1-.5,1.532l-1.123.327a1.047,1.047,0,0,0-.38,1.808l4.521,3.794A8,8,0,0,0,116.644,212.41Z" transform="translate(-88.782 -187.152)"/>
      </g>
      <path id="패스_6-11" data-name="패스 6" class="cls-2" d="M98.479,292.667V268.284l-23.19,7.535a10.087,10.087,0,0,0-6.97,9.594v10.266a3.327,3.327,0,0,0,3.952,3.268l2.366-.452a2.1,2.1,0,0,1,2.478,1.8l.3,2.39a3.327,3.327,0,0,0,4.329,2.749l9.764-3.172A10.088,10.088,0,0,0,98.479,292.667Z" transform="translate(-57.34 -215.506)"/>
      <path id="패스_7-11" data-name="패스 7" class="cls-5" d="M98.479,292.667V268.284l-23.19,7.535a10.087,10.087,0,0,0-6.97,9.594v10.266a3.327,3.327,0,0,0,3.952,3.268l2.366-.452a2.1,2.1,0,0,1,2.478,1.8l.3,2.39a3.327,3.327,0,0,0,4.329,2.749l9.764-3.172A10.088,10.088,0,0,0,98.479,292.667Z" transform="translate(-57.34 -215.506)"/>
      <path id="패스_8-11" data-name="패스 8" class="cls-3" d="M165.668,281.335l2.8-13.051-11.548,6.694a8,8,0,0,0-3.752,4.988l-1.428,5.726a1.047,1.047,0,0,0,1.37,1.239l1.1-.4a.974.974,0,0,1,1.3.947l-.036,1.17a1.047,1.047,0,0,0,1.6.92l5.005-3.127A8.006,8.006,0,0,0,165.668,281.335Z" transform="translate(-127.327 -215.506)"/>
      <path id="패스_9-11" data-name="패스 9" class="cls-2" d="M279.191,151.068,256,143.534l14.332-19.727a10.087,10.087,0,0,1,11.278-3.664l9.764,3.172a3.327,3.327,0,0,1,1.887,4.768l-1.161,2.11a2.1,2.1,0,0,0,.947,2.913l2.18,1.025A3.327,3.327,0,0,1,296.5,139.1l-6.034,8.305A10.087,10.087,0,0,1,279.191,151.068Z" transform="translate(-214.862 -90.756)"/>
      <path id="패스_10-11" data-name="패스 10" class="cls-5" d="M279.191,151.068,256,143.534l14.332-19.727a10.087,10.087,0,0,1,11.278-3.664l9.764,3.172a3.327,3.327,0,0,1,1.887,4.768l-1.161,2.11a2.1,2.1,0,0,0,.947,2.913l2.18,1.025A3.327,3.327,0,0,1,296.5,139.1l-6.034,8.305A10.087,10.087,0,0,1,279.191,151.068Z" transform="translate(-214.862 -90.756)"/>
      <path id="패스_11-11" data-name="패스 11" class="cls-3" d="M269.278,212.41,256,211.037l9.935-8.914a8,8,0,0,1,5.9-2.027l5.887.412a1.047,1.047,0,0,1,.755,1.686l-.717.925a.974.974,0,0,0,.5,1.532l1.123.327a1.047,1.047,0,0,1,.38,1.808l-4.521,3.794A8,8,0,0,1,269.278,212.41Z" transform="translate(-214.862 -158.259)"/>
      <path id="패스_12-11" data-name="패스 12" class="cls-2" d="M256,292.667V268.284l23.19,7.535a10.087,10.087,0,0,1,6.97,9.594v10.266a3.327,3.327,0,0,1-3.952,3.268l-2.366-.452a2.1,2.1,0,0,0-2.478,1.8l-.3,2.39a3.327,3.327,0,0,1-4.329,2.749l-9.764-3.172A10.088,10.088,0,0,1,256,292.667Z" transform="translate(-214.862 -215.506)"/>
      <path id="패스_13-11" data-name="패스 13" class="cls-3" d="M258.8,281.335,256,268.284l11.548,6.694a8,8,0,0,1,3.752,4.988l1.428,5.726a1.047,1.047,0,0,1-1.37,1.239l-1.1-.4a.974.974,0,0,0-1.3.947l.036,1.17a1.047,1.047,0,0,1-1.6.92l-5.005-3.127A8.006,8.006,0,0,1,258.8,281.335Z" transform="translate(-214.862 -215.506)"/>
      <g id="그룹_2-11" data-name="그룹 2" class="cls-6" transform="translate(8.477 18.498)">
        <path id="패스_14-11" data-name="패스 14" d="M249.706,61.117a1.205,1.205,0,0,1-1.205-1.205V56.17a1.205,1.205,0,1,1,2.41,0v3.742A1.205,1.205,0,0,1,249.706,61.117Z" transform="translate(-217.045 -54.965)"/>
        <path id="패스_15-11" data-name="패스 15" d="M57.518,200.747a1.205,1.205,0,0,1-.373-.059l-3.558-1.156a1.205,1.205,0,1,1,.745-2.292L57.89,198.4a1.205,1.205,0,0,1-.372,2.352Z" transform="translate(-52.754 -174.326)"/>
        <path id="패스_16-11" data-name="패스 16" d="M128.728,413.895a1.205,1.205,0,0,1-.974-1.914l2.2-3.027a1.205,1.205,0,1,1,1.95,1.417l-2.2,3.027A1.2,1.2,0,0,1,128.728,413.895Z" transform="translate(-115.508 -351.652)"/>
        <path id="패스_17-11" data-name="패스 17" d="M359.2,413.9a1.2,1.2,0,0,1-.976-.5l-2.2-3.027a1.205,1.205,0,0,1,1.95-1.417l2.2,3.027a1.205,1.205,0,0,1-.974,1.914Z" transform="translate(-307.094 -351.653)"/>
        <path id="패스_18-11" data-name="패스 18" d="M423.306,200.746a1.205,1.205,0,0,1-.372-2.352l3.558-1.156a1.205,1.205,0,1,1,.745,2.292l-3.559,1.156A1.194,1.194,0,0,1,423.306,200.746Z" transform="translate(-362.748 -174.326)"/>
      </g>
    </g>
    <text id="꽃_구_름" data-name="꽃 구 름" class="cls-7" transform="translate(156 95)"><tspan x="0" y="0">꽃 구 름</tspan></text>
  </g>
</svg>
